<svg width="16" height="16" viewBox="0 0 16 16" fill="none" xmlns="http://www.w3.org/2000/svg">
<g clip-path="url(#clip0_39_3356)">
<path d="M2.66667 1.33325H13.3333C13.5101 1.33325 13.6797 1.40349 13.8047 1.52851C13.9298 1.65354 14 1.82311 14 1.99992V13.9999C14 14.1767 13.9298 14.3463 13.8047 14.4713C13.6797 14.5963 13.5101 14.6666 13.3333 14.6666H2.66667C2.48986 14.6666 2.32029 14.5963 2.19526 14.4713C2.07024 14.3463 2 14.1767 2 13.9999V1.99992C2 1.82311 2.07024 1.65354 2.19526 1.52851C2.32029 1.40349 2.48986 1.33325 2.66667 1.33325ZM3.33333 2.66659V13.3333H12.6667V2.66659H3.33333ZM4.66667 3.99992H11.3333V6.66658H4.66667V3.99992ZM4.66667 7.99992H6V9.33325H4.66667V7.99992ZM4.66667 10.6666H6V11.9999H4.66667V10.6666ZM7.33333 7.99992H8.66667V9.33325H7.33333V7.99992ZM7.33333 10.6666H8.66667V11.9999H7.33333V10.6666ZM10 7.99992H11.3333V11.9999H10V7.99992Z" fill="#29ABE2"/>
</g>
<defs>
<clipPath id="clip0_39_3356">
<rect width="16" height="16" fill="white"/>
</clipPath>
</defs>
</svg>
