<svg width="138" height="26" viewBox="0 0 138 26" fill="none" xmlns="http://www.w3.org/2000/svg">
<path d="M48.3808 25.5H33.2702C33.016 25.4999 32.7653 25.4399 32.5385 25.3248C32.3118 25.2096 32.1153 25.0427 31.9652 24.8374L30.0043 22.1513L25.81 16.4081L24.985 15.2788L22.9132 12.4452L22.9216 12.4335L21.7207 10.7908L21.7107 10.7983L18.5164 6.42451C18.4012 6.26643 18.2502 6.13782 18.0759 6.04915C17.9015 5.96048 17.7087 5.91426 17.513 5.91426C17.3174 5.91426 17.1246 5.96048 16.9502 6.04915C16.7759 6.13782 16.6249 6.26643 16.5097 6.42451L15.4421 7.88634L5.74764 21.1662C5.68012 21.2588 5.63949 21.3683 5.63022 21.4826C5.62095 21.5968 5.64342 21.7114 5.69513 21.8137C5.74684 21.9161 5.82579 22.0021 5.92329 22.0624C6.02078 22.1227 6.13303 22.1549 6.24766 22.1555H15.1846C15.3796 22.1549 15.5716 22.1085 15.7454 22.0201C15.9191 21.9316 16.0696 21.8036 16.1847 21.6462L19.8365 16.6507C19.9518 16.4929 20.1028 16.3646 20.277 16.2761C20.4513 16.1877 20.644 16.1416 20.8394 16.1416C21.0348 16.1416 21.2275 16.1877 21.4018 16.2761C21.576 16.3646 21.727 16.4929 21.8424 16.6507L22.3757 17.3799C22.5317 17.5931 22.6157 17.8504 22.6157 18.1146C22.6157 18.3787 22.5317 18.636 22.3757 18.8492L19.959 22.1563L17.9981 24.8383C17.8478 25.0435 17.6512 25.2104 17.4243 25.3254C17.1974 25.4404 16.9466 25.5002 16.6922 25.5H1.61583C1.31734 25.4998 1.02471 25.417 0.770386 25.2608C0.516058 25.1045 0.309956 24.8808 0.174914 24.6146C0.0398719 24.3484 -0.0188377 24.05 0.00529154 23.7524C0.0294208 23.4549 0.135446 23.1699 0.31162 22.9289L0.879139 22.1513L7.33103 13.3228L13.3746 5.04686L15.4455 2.2132L16.2122 1.16308C16.3621 0.957643 16.5584 0.790507 16.7851 0.675282C17.0118 0.560057 17.2625 0.5 17.5168 0.5C17.7711 0.5 18.0218 0.560057 18.2485 0.675282C18.4752 0.790507 18.6715 0.957643 18.8214 1.16308L23.8024 7.98302L24.99 9.60904L27.0617 12.4427L27.7651 13.4045L33.7736 21.6412C33.8885 21.7988 34.0389 21.9271 34.2127 22.0157C34.3864 22.1043 34.5786 22.1508 34.7736 22.1513H43.7489C43.863 22.1505 43.9746 22.1183 44.0716 22.0583C44.1686 21.9983 44.2472 21.9127 44.2989 21.811C44.3505 21.7093 44.3731 21.5953 44.3643 21.4816C44.3555 21.3679 44.3156 21.2587 44.249 21.1662L33.4694 6.41951C33.3542 6.2616 33.2033 6.13313 33.029 6.04456C32.8547 5.956 32.662 5.90984 32.4665 5.90984C32.271 5.90984 32.0782 5.956 31.904 6.04456C31.7297 6.13313 31.5788 6.2616 31.4635 6.41951L30.1393 8.23055C30.024 8.38847 29.873 8.51693 29.6986 8.6055C29.5243 8.69406 29.3315 8.74022 29.1359 8.74022C28.9404 8.74022 28.7476 8.69406 28.5733 8.6055C28.3989 8.51693 28.2479 8.38847 28.1326 8.23055L27.6001 7.49797C27.4441 7.28476 27.36 7.02746 27.36 6.7633C27.36 6.49914 27.4441 6.24183 27.6001 6.02863L31.1652 1.16392C31.3151 0.958639 31.5114 0.791647 31.738 0.676526C31.9646 0.561405 32.2152 0.501405 32.4694 0.501405C32.7236 0.501405 32.9742 0.561405 33.2008 0.676526C33.4274 0.791647 33.6237 0.958639 33.7736 1.16392L49.6908 22.9322C49.8663 23.1736 49.9716 23.4588 49.995 23.7564C50.0184 24.0539 49.959 24.3521 49.8234 24.618C49.6877 24.8838 49.4812 25.107 49.2266 25.2626C48.9719 25.4183 48.6792 25.5005 48.3808 25.5V25.5Z" fill="url(#paint0_linear_39_1459)"/>
<path d="M71.0645 7.10547H75.3906V21.5H72.5879V11.7637C72.5879 11.4837 72.5911 11.0931 72.5977 10.5918C72.6042 10.084 72.6074 9.69336 72.6074 9.41992L69.8828 21.5H66.9629L64.2578 9.41992C64.2578 9.69336 64.2611 10.084 64.2676 10.5918C64.2741 11.0931 64.2773 11.4837 64.2773 11.7637V21.5H61.4746V7.10547H65.8496L68.4668 18.4238L71.0645 7.10547ZM82.1582 12.8672C81.5137 12.8672 81.0124 13.069 80.6543 13.4727C80.3027 13.8763 80.0814 14.4232 79.9902 15.1133H84.3164C84.2708 14.3776 84.0462 13.821 83.6426 13.4434C83.2454 13.0592 82.7507 12.8672 82.1582 12.8672ZM82.1582 10.5723C83.0436 10.5723 83.8411 10.7383 84.5508 11.0703C85.2604 11.4023 85.8464 11.9264 86.3086 12.6426C86.7253 13.2741 86.9954 14.0065 87.1191 14.8398C87.1908 15.3281 87.2201 16.0312 87.207 16.9492H79.9219C79.9609 18.0169 80.2962 18.7656 80.9277 19.1953C81.3118 19.4622 81.7741 19.5957 82.3145 19.5957C82.8874 19.5957 83.3529 19.4329 83.7109 19.1074C83.9062 18.9316 84.0788 18.6875 84.2285 18.375H87.0703C86.9987 19.0065 86.6699 19.6478 86.084 20.2988C85.1725 21.334 83.8965 21.8516 82.2559 21.8516C80.9017 21.8516 79.707 21.4154 78.6719 20.543C77.6367 19.6706 77.1191 18.2513 77.1191 16.2852C77.1191 14.4427 77.5846 13.0299 78.5156 12.0469C79.4531 11.0638 80.6673 10.5723 82.1582 10.5723ZM94.873 10.6016C94.9251 10.6016 94.9674 10.6048 95 10.6113C95.0391 10.6113 95.1204 10.6146 95.2441 10.6211V13.4727C95.0684 13.4531 94.9121 13.4401 94.7754 13.4336C94.6387 13.4271 94.528 13.4238 94.4434 13.4238C93.3236 13.4238 92.5716 13.7884 92.1875 14.5176C91.9727 14.9277 91.8652 15.5592 91.8652 16.4121V21.5H89.0625V10.8555H91.7188V12.7109C92.1484 12.0013 92.5228 11.5163 92.8418 11.2559C93.3626 10.8197 94.0397 10.6016 94.873 10.6016ZM103.242 14.6738C103.19 14.2767 103.057 13.9186 102.842 13.5996C102.529 13.1699 102.044 12.9551 101.387 12.9551C100.449 12.9551 99.8079 13.4206 99.4629 14.3516C99.2806 14.8464 99.1895 15.5039 99.1895 16.3242C99.1895 17.1055 99.2806 17.7337 99.4629 18.209C99.7949 19.0944 100.42 19.5371 101.338 19.5371C101.989 19.5371 102.451 19.3613 102.725 19.0098C102.998 18.6582 103.164 18.2025 103.223 17.6426H106.064C105.999 18.4889 105.693 19.2897 105.146 20.0449C104.274 21.2624 102.982 21.8711 101.27 21.8711C99.5573 21.8711 98.2975 21.3633 97.4902 20.3477C96.6829 19.332 96.2793 18.0137 96.2793 16.3926C96.2793 14.5632 96.7253 13.1406 97.6172 12.125C98.5091 11.1094 99.7396 10.6016 101.309 10.6016C102.643 10.6016 103.734 10.901 104.58 11.5C105.433 12.099 105.938 13.1569 106.094 14.6738H103.242ZM110.791 10.8555V17.2715C110.791 17.877 110.863 18.3327 111.006 18.6387C111.26 19.179 111.758 19.4492 112.5 19.4492C113.451 19.4492 114.102 19.0651 114.453 18.2969C114.635 17.8802 114.727 17.3301 114.727 16.6465V10.8555H117.549V21.5H114.844V19.9961C114.818 20.0286 114.753 20.1263 114.648 20.2891C114.544 20.4518 114.421 20.5951 114.277 20.7188C113.841 21.1094 113.418 21.3763 113.008 21.5195C112.604 21.6628 112.129 21.7344 111.582 21.7344C110.007 21.7344 108.945 21.168 108.398 20.0352C108.092 19.4102 107.939 18.4889 107.939 17.2715V10.8555H110.791ZM126.025 10.6016C126.077 10.6016 126.12 10.6048 126.152 10.6113C126.191 10.6113 126.273 10.6146 126.396 10.6211V13.4727C126.221 13.4531 126.064 13.4401 125.928 13.4336C125.791 13.4271 125.68 13.4238 125.596 13.4238C124.476 13.4238 123.724 13.7884 123.34 14.5176C123.125 14.9277 123.018 15.5592 123.018 16.4121V21.5H120.215V10.8555H122.871V12.7109C123.301 12.0013 123.675 11.5163 123.994 11.2559C124.515 10.8197 125.192 10.6016 126.025 10.6016ZM128.467 23.541L128.818 23.5605C129.092 23.5736 129.352 23.5638 129.6 23.5312C129.847 23.4987 130.055 23.4238 130.225 23.3066C130.387 23.196 130.537 22.9648 130.674 22.6133C130.817 22.2617 130.876 22.0469 130.85 21.9688L126.943 10.8555H130.039L132.363 18.707L134.561 10.8555H137.52L133.867 21.3242C133.164 23.3424 132.607 24.5924 132.197 25.0742C131.787 25.5625 130.967 25.8066 129.736 25.8066C129.489 25.8066 129.29 25.8034 129.141 25.7969C128.991 25.7969 128.766 25.7871 128.467 25.7676V23.541Z" fill="white"/>
<defs>
<linearGradient id="paint0_linear_39_1459" x1="10.8378" y1="5.60609" x2="36.3919" y2="36.0567" gradientUnits="userSpaceOnUse">
<stop stop-color="#AA14F0"/>
<stop offset="1" stop-color="#29ABE2"/>
</linearGradient>
</defs>
</svg>
