<svg width="25" height="25" viewBox="0 0 25 25" fill="none" xmlns="http://www.w3.org/2000/svg">
<path d="M20 2H7.4375C7.33437 2 7.25 2.08437 7.25 2.1875V3.5C7.25 3.60313 7.33437 3.6875 7.4375 3.6875H19.0625V19.8125C19.0625 19.9156 19.1469 20 19.25 20H20.5625C20.6656 20 20.75 19.9156 20.75 19.8125V2.75C20.75 2.33516 20.4148 2 20 2ZM17 5H5C4.58516 5 4.25 5.33516 4.25 5.75V18.1883C4.25 18.3875 4.32969 18.5773 4.47031 18.718L8.53203 22.7797C8.58359 22.8312 8.64219 22.8734 8.70547 22.9086V22.9531H8.80391C8.88594 22.9836 8.97266 23 9.06172 23H17C17.4148 23 17.75 22.6648 17.75 22.25V5.75C17.75 5.33516 17.4148 5 17 5ZM9.45312 21.5H9.44844L5.9375 17.9891V17.9844H9.45312V21.5Z" fill="#29ABE2"/>
</svg>
