<svg width="204" height="43" viewBox="0 0 204 43" fill="none" xmlns="http://www.w3.org/2000/svg">
<path d="M83.2149 43H57.2248C56.7874 42.9999 56.3562 42.8966 55.9662 42.6986C55.5762 42.5006 55.2384 42.2134 54.9801 41.8604L51.6074 37.2402L44.3932 27.362L42.9741 25.4196L39.4107 20.5457L39.4251 20.5257L37.3596 17.7002L37.3424 17.7131L31.8482 10.1902C31.65 9.91827 31.3904 9.69705 31.0905 9.54454C30.7906 9.39203 30.4589 9.31253 30.1224 9.31253C29.786 9.31253 29.4543 9.39203 29.1544 9.54454C28.8545 9.69705 28.5948 9.91827 28.3966 10.1902L26.5605 12.7045L9.88594 35.5458C9.7698 35.7052 9.69991 35.8935 9.68398 36.09C9.66804 36.2865 9.70668 36.4837 9.79562 36.6596C9.88456 36.8356 10.0204 36.9836 10.1881 37.0873C10.3557 37.191 10.5488 37.2464 10.746 37.2474H26.1176C26.4529 37.2465 26.7832 37.1667 27.082 37.0146C27.3808 36.8624 27.6396 36.6421 27.8376 36.3715L34.1187 27.7791C34.3171 27.5078 34.5768 27.2871 34.8765 27.1349C35.1762 26.9828 35.5076 26.9035 35.8438 26.9035C36.1799 26.9035 36.5113 26.9828 36.8111 27.1349C37.1108 27.2871 37.3704 27.5078 37.5689 27.7791L38.4862 29.0335C38.7545 29.4002 38.899 29.8427 38.899 30.2971C38.899 30.7514 38.7545 31.194 38.4862 31.5607L34.3294 37.2488L30.9567 41.8618C30.6982 42.2149 30.3601 42.5019 29.9698 42.6997C29.5795 42.8975 29.1481 43.0004 28.7105 43H2.77923C2.26582 42.9997 1.76251 42.8573 1.32506 42.5885C0.88762 42.3197 0.533125 41.9351 0.300852 41.4772C0.0685797 41.0193 -0.0324009 40.506 0.00910144 39.9942C0.0506038 39.4824 0.232967 38.9921 0.535986 38.5777L1.51212 37.2402L12.6094 22.0552L23.0043 7.82059L26.5662 2.94671L27.8849 1.14051C28.1428 0.787147 28.4804 0.499672 28.8703 0.301485C29.2603 0.103299 29.6915 0 30.1289 0C30.5663 0 30.9975 0.103299 31.3874 0.301485C31.7774 0.499672 32.115 0.787147 32.3728 1.14051L40.9402 12.8708L42.9827 15.6675L46.5461 20.5414L47.7559 22.1957L58.0906 36.3629C58.2883 36.634 58.547 36.8546 58.8458 37.0071C59.1447 37.1595 59.4752 37.2394 59.8106 37.2402H75.2482C75.4444 37.2388 75.6364 37.1835 75.8032 37.0802C75.97 36.977 76.1052 36.8298 76.1941 36.6549C76.2829 36.4799 76.3218 36.2839 76.3067 36.0883C76.2915 35.8927 76.2229 35.705 76.1082 35.5458L57.5674 10.1816C57.3692 9.90994 57.1096 9.68898 56.8098 9.53665C56.5101 9.38431 56.1786 9.30492 55.8423 9.30492C55.5061 9.30492 55.1746 9.38431 54.8748 9.53665C54.5751 9.68898 54.3155 9.90994 54.1173 10.1816L51.8396 13.2965C51.6412 13.5682 51.3815 13.7891 51.0816 13.9415C50.7818 14.0938 50.4502 14.1732 50.1138 14.1732C49.7775 14.1732 49.4459 14.0938 49.146 13.9415C48.8461 13.7891 48.5864 13.5682 48.388 13.2965L47.4721 12.0365C47.2038 11.6698 47.0593 11.2272 47.0593 10.7729C47.0593 10.3185 47.2038 9.87596 47.4721 9.50925L53.6041 1.14194C53.862 0.788858 54.1995 0.501633 54.5893 0.303625C54.9791 0.105616 55.4102 0.00241701 55.8474 0.00241701C56.2845 0.00241701 56.7156 0.105616 57.1054 0.303625C57.4952 0.501633 57.8327 0.788858 58.0906 1.14194L85.4682 38.5834C85.7701 38.9986 85.9512 39.4892 85.9914 40.001C86.0317 40.5127 85.9295 41.0257 85.6962 41.4829C85.4629 41.9402 85.1076 42.324 84.6697 42.5917C84.2317 42.8595 83.7282 43.0008 83.2149 43Z" fill="url(#paint0_linear_25_353)"/>
<path d="M116.384 14.2871H122.008V33H118.364V20.3428C118.364 19.9788 118.368 19.471 118.377 18.8193C118.385 18.1592 118.39 17.6514 118.39 17.2959L114.848 33H111.052L107.535 17.2959C107.535 17.6514 107.539 18.1592 107.548 18.8193C107.556 19.471 107.561 19.9788 107.561 20.3428V33H103.917V14.2871H109.604L113.007 29.001L116.384 14.2871ZM130.806 21.7773C129.968 21.7773 129.316 22.0397 128.851 22.5645C128.394 23.0892 128.106 23.8001 127.987 24.6973H133.611C133.552 23.7409 133.26 23.0173 132.735 22.5264C132.219 22.027 131.576 21.7773 130.806 21.7773ZM130.806 18.7939C131.957 18.7939 132.993 19.0098 133.916 19.4414C134.839 19.873 135.6 20.5544 136.201 21.4854C136.743 22.3063 137.094 23.2585 137.255 24.3418C137.348 24.9766 137.386 25.8906 137.369 27.084H127.898C127.949 28.472 128.385 29.4453 129.206 30.0039C129.705 30.3509 130.306 30.5244 131.009 30.5244C131.754 30.5244 132.359 30.3128 132.824 29.8896C133.078 29.6611 133.302 29.3438 133.497 28.9375H137.191C137.098 29.7585 136.671 30.5921 135.909 31.4385C134.724 32.7842 133.065 33.457 130.933 33.457C129.172 33.457 127.619 32.89 126.273 31.7559C124.928 30.6217 124.255 28.7767 124.255 26.2207C124.255 23.8255 124.86 21.9889 126.07 20.7109C127.289 19.4329 128.868 18.7939 130.806 18.7939ZM147.335 18.832C147.403 18.832 147.458 18.8363 147.5 18.8447C147.551 18.8447 147.657 18.849 147.817 18.8574V22.5645C147.589 22.5391 147.386 22.5221 147.208 22.5137C147.03 22.5052 146.886 22.501 146.776 22.501C145.321 22.501 144.343 22.9749 143.844 23.9229C143.564 24.4561 143.425 25.277 143.425 26.3857V33H139.781V19.1621H143.234V21.5742C143.793 20.6517 144.28 20.0212 144.694 19.6826C145.371 19.1156 146.252 18.832 147.335 18.832ZM158.215 24.126C158.147 23.6097 157.974 23.1442 157.694 22.7295C157.288 22.1709 156.658 21.8916 155.803 21.8916C154.584 21.8916 153.75 22.4967 153.302 23.707C153.065 24.3503 152.946 25.2051 152.946 26.2715C152.946 27.2871 153.065 28.1038 153.302 28.7217C153.733 29.8727 154.546 30.4482 155.739 30.4482C156.586 30.4482 157.187 30.2197 157.542 29.7627C157.897 29.3057 158.113 28.7132 158.189 27.9854H161.884C161.799 29.0856 161.401 30.1266 160.69 31.1084C159.556 32.6911 157.876 33.4824 155.65 33.4824C153.424 33.4824 151.787 32.8223 150.737 31.502C149.688 30.1816 149.163 28.4678 149.163 26.3604C149.163 23.9821 149.743 22.1328 150.902 20.8125C152.062 19.4922 153.661 18.832 155.701 18.832C157.436 18.832 158.854 19.2214 159.954 20C161.063 20.7786 161.719 22.154 161.922 24.126H158.215ZM168.028 19.1621V27.5029C168.028 28.29 168.121 28.8825 168.308 29.2803C168.638 29.9827 169.285 30.334 170.25 30.334C171.486 30.334 172.332 29.8346 172.789 28.8359C173.026 28.2943 173.145 27.5791 173.145 26.6904V19.1621H176.813V33H173.297V31.0449C173.263 31.0872 173.178 31.2142 173.043 31.4258C172.908 31.6374 172.747 31.8236 172.561 31.9844C171.993 32.4922 171.443 32.8392 170.91 33.0254C170.385 33.2116 169.768 33.3047 169.057 33.3047C167.008 33.3047 165.629 32.5684 164.918 31.0957C164.52 30.2832 164.321 29.0856 164.321 27.5029V19.1621H168.028ZM187.833 18.832C187.901 18.832 187.956 18.8363 187.998 18.8447C188.049 18.8447 188.155 18.849 188.315 18.8574V22.5645C188.087 22.5391 187.884 22.5221 187.706 22.5137C187.528 22.5052 187.384 22.501 187.274 22.501C185.819 22.501 184.841 22.9749 184.342 23.9229C184.062 24.4561 183.923 25.277 183.923 26.3857V33H180.279V19.1621H183.732V21.5742C184.291 20.6517 184.778 20.0212 185.192 19.6826C185.869 19.1156 186.75 18.832 187.833 18.832ZM191.007 35.6533L191.464 35.6787C191.819 35.6956 192.158 35.6829 192.479 35.6406C192.801 35.5983 193.072 35.501 193.292 35.3486C193.504 35.2048 193.698 34.9043 193.876 34.4473C194.062 33.9902 194.138 33.7109 194.104 33.6094L189.026 19.1621H193.051L196.072 29.3691L198.929 19.1621H202.775L198.027 32.7715C197.113 35.3952 196.39 37.0202 195.856 37.6465C195.323 38.2812 194.257 38.5986 192.657 38.5986C192.336 38.5986 192.077 38.5944 191.883 38.5859C191.688 38.5859 191.396 38.5732 191.007 38.5479V35.6533Z" fill="white"/>
<defs>
<linearGradient id="paint0_linear_25_353" x1="18.641" y1="8.78247" x2="62.594" y2="61.1575" gradientUnits="userSpaceOnUse">
<stop stop-color="#AA14F0"/>
<stop offset="1" stop-color="#29ABE2"/>
</linearGradient>
</defs>
</svg>
