<svg width="26" height="26" viewBox="0 0 26 26" fill="none" xmlns="http://www.w3.org/2000/svg">
<path d="M13 25.5C6.09625 25.5 0.5 19.9037 0.5 13C0.5 6.09625 6.09625 0.5 13 0.5C19.9037 0.5 25.5 6.09625 25.5 13C25.5 19.9037 19.9037 25.5 13 25.5ZM11.6425 12.46C11.9425 11.41 12.9862 10.5337 14.13 10.4C14.3637 11.2675 14.615 12.1162 14.8112 12.9787C14.8775 13.2662 14.8575 13.5975 14.7887 13.8875C14.5225 15.0025 13.2287 15.44 12.3162 14.7437C11.6537 14.2375 11.3887 13.3437 11.6425 12.46ZM16.4137 12.2137C16.2575 11.6325 16.0937 11.055 15.9225 10.4387C16.5475 10.6012 17.0575 10.8887 17.4912 11.3112C19.0625 12.8375 19.2225 15.4362 17.8587 17.225C16.44 19.0875 13.915 19.8925 11.5737 19.2312C8.69625 18.4187 6.81375 15.5412 7.2725 12.5862C7.615 10.3762 8.86 8.83125 10.8975 7.92C11.4062 7.6925 11.6225 7.22 11.4225 6.7575C11.2262 6.3025 10.7475 6.1275 10.2425 6.32875C6.84125 7.69 4.8425 11.4962 5.655 15.0625C6.54625 18.96 10.0237 21.5162 13.9987 21.1362C16.1637 20.93 17.9537 19.9512 19.2687 18.2025C21.1512 15.7 20.89 12.2237 18.69 10.0787C17.8575 9.26625 16.8512 8.80625 15.7025 8.6375C15.5987 8.62125 15.4312 8.5725 15.4125 8.505C15.3037 8.11375 15.1875 7.715 15.155 7.3125C15.1187 6.86625 15.5175 6.5125 15.9675 6.50625C16.2837 6.5025 16.51 6.66875 16.7212 6.88125C17.1 7.25625 17.6012 7.28375 17.9562 6.95875C18.3187 6.62875 18.3262 6.11125 17.9787 5.69875C17.2712 4.85875 15.9962 4.585 14.9412 5.045C13.8825 5.5075 13.29 6.52875 13.4412 7.66125C13.4887 8.01125 13.5787 8.3575 13.65 8.71375L13.325 8.80375C12.255 9.10375 11.3737 9.68375 10.7025 10.5712C9.55125 12.0962 9.5325 14.1062 10.6512 15.505C12.2437 17.4975 15.335 17.11 16.305 14.795C16.66 13.95 16.6487 13.085 16.4137 12.2137Z" fill="white"/>
</svg>
