<svg width="28" height="28" viewBox="0 0 28 28" fill="none" xmlns="http://www.w3.org/2000/svg">
<path d="M14.005 17.9941C13.0789 17.9941 12.2116 17.6376 11.5549 16.986C10.9013 16.3344 10.5389 15.4738 10.5389 14.5549C10.5389 13.6359 10.9013 12.7753 11.5549 12.1237C12.2116 11.4752 13.0789 11.1156 14.005 11.1156C14.9312 11.1156 15.7985 11.4752 16.4552 12.1237C17.1087 12.7753 17.4711 13.6359 17.4711 14.5549C17.4711 15.4738 17.1087 16.3344 16.4552 16.986C16.1344 17.3067 15.7527 17.561 15.3321 17.734C14.9114 17.9071 14.4604 17.9955 14.005 17.9941ZM26.776 10.756L24.7503 12.4741C24.8463 13.0581 24.8959 13.6543 24.8959 14.2475C24.8959 14.8407 24.8463 15.44 24.7503 16.0209L26.776 17.739C26.9291 17.869 27.0386 18.0422 27.0901 18.2354C27.1415 18.4287 27.1325 18.6329 27.0641 18.8209L27.0362 18.9008C26.4787 20.4478 25.6434 21.8817 24.5706 23.1331L24.5149 23.1976C24.3846 23.3496 24.211 23.4588 24.0169 23.511C23.8228 23.5631 23.6174 23.5556 23.4276 23.4896L20.9125 22.6014C19.9832 23.3574 18.9487 23.9537 17.8274 24.3686L17.341 26.9781C17.3044 27.1746 17.2083 27.3555 17.0655 27.4966C16.9228 27.6377 16.7401 27.7323 16.5419 27.7679L16.4583 27.7833C14.8476 28.0722 13.1501 28.0722 11.5394 27.7833L11.4558 27.7679C11.2575 27.7323 11.0749 27.6377 10.9322 27.4966C10.7894 27.3555 10.6933 27.1746 10.6566 26.9781L10.1672 24.3563C9.05656 23.9381 8.02189 23.3433 7.1038 22.5952L4.57004 23.4896C4.38037 23.5562 4.17478 23.5639 3.98058 23.5117C3.78638 23.4596 3.61277 23.35 3.48282 23.1976L3.42707 23.1331C2.35624 21.8803 1.52108 20.4468 0.961455 18.9008L0.933577 18.8209C0.79419 18.4367 0.908797 18.0064 1.22164 17.739L3.27219 16.0025C3.17617 15.4247 3.12971 14.8346 3.12971 14.2506C3.12971 13.6605 3.17617 13.0703 3.27219 12.4987L1.22784 10.7621C1.07481 10.6321 0.965285 10.459 0.913827 10.2658C0.86237 10.0725 0.871419 9.86828 0.939772 9.68025L0.96765 9.60034C1.5283 8.05435 2.35533 6.62516 3.43326 5.36809L3.48902 5.30355C3.61928 5.15157 3.79289 5.04232 3.98698 4.99019C4.18106 4.93807 4.38651 4.94552 4.57624 5.01156L7.11 5.90596C8.03305 5.15294 9.06142 4.55668 10.1734 4.14483L10.6628 1.52311C10.6995 1.32654 10.7956 1.14569 10.9384 1.0046C11.0811 0.863512 11.2637 0.768858 11.462 0.733215L11.5456 0.717848C13.1722 0.427382 14.8379 0.427382 16.4645 0.717848L16.5481 0.733215C16.7463 0.768858 16.929 0.863512 17.0717 1.0046C17.2145 1.14569 17.3106 1.32654 17.3472 1.52311L17.8336 4.13254C18.9548 4.55054 19.9894 5.14373 20.9187 5.89981L23.4338 5.01156C23.6235 4.945 23.8291 4.93728 24.0233 4.98943C24.2175 5.04159 24.3911 5.15115 24.5211 5.30355L24.5768 5.36809C25.6547 6.63131 26.4818 8.05435 27.0424 9.60034L27.0703 9.68025C27.2035 10.0614 27.0889 10.4886 26.776 10.756ZM14.005 9.1516C10.9974 9.1516 8.55963 11.5705 8.55963 14.5549C8.55963 17.5393 10.9974 19.9581 14.005 19.9581C17.0127 19.9581 19.4504 17.5393 19.4504 14.5549C19.4504 11.5705 17.0127 9.1516 14.005 9.1516Z" fill="white"/>
</svg>
