<svg width="26" height="26" viewBox="0 0 26 26" fill="none" xmlns="http://www.w3.org/2000/svg">
<path d="M13 0.5C19.9037 0.5 25.5 6.09625 25.5 13C25.5 19.9037 19.9037 25.5 13 25.5C6.09625 25.5 0.5 19.9037 0.5 13C0.5 6.09625 6.09625 0.5 13 0.5ZM15.0875 18H10.9125L9.1875 20.3712L9.88 22.5037C10.8871 22.8336 11.9403 23.0011 13 23C14.0887 23 15.1375 22.825 16.12 22.5037L16.8112 20.3712L15.0862 18H15.0875ZM4.6175 11.59L3.0025 12.7612L3 13C3 15.1625 3.68625 17.1637 4.8525 18.8H7.24L8.89375 16.525L7.60875 12.5625L4.6175 11.59ZM21.3825 11.59L18.3912 12.5625L17.1062 16.525L18.7587 18.8H21.1462C22.3548 17.1077 23.003 15.0795 23 13L22.9962 12.7625L21.3825 11.59ZM13 9.92L10.07 12.0475L11.19 15.5H14.8087L15.9287 12.0475L13 9.92ZM15.8637 3.41625L14.25 4.59125V7.7375L17.6175 10.1837L20.4162 9.275L21.1087 7.14625C19.8183 5.35984 17.9748 4.04881 15.8637 3.41625ZM10.135 3.41625C8.02426 4.04938 6.18119 5.36084 4.89125 7.1475L5.58375 9.275L8.3825 10.1837L11.75 7.7375V4.59125L10.135 3.41625Z" fill="white"/>
</svg>
