<svg width="24" height="26" viewBox="0 0 24 26" fill="none" xmlns="http://www.w3.org/2000/svg">
<path d="M23.25 9.25V24.2412C23.2512 24.4054 23.22 24.5682 23.1582 24.7203C23.0965 24.8724 23.0053 25.0108 22.8901 25.1277C22.7748 25.2446 22.6377 25.3376 22.4864 25.4015C22.3352 25.4654 22.1729 25.4989 22.0088 25.5H1.99125C1.66227 25.5 1.34674 25.3694 1.114 25.1369C0.881252 24.9044 0.750331 24.589 0.75 24.26V1.74C0.75 1.06875 1.30875 0.5 1.9975 0.5H14.5V8C14.5 8.33152 14.6317 8.64946 14.8661 8.88388C15.1005 9.1183 15.4185 9.25 15.75 9.25H23.25ZM23.25 6.75H17V0.50375L23.25 6.75Z" fill="white"/>
</svg>
