<svg width="21" height="12" viewBox="0 0 21 12" fill="none" xmlns="http://www.w3.org/2000/svg">
<path d="M17.332 0.510609C17.6891 0.174552 18.1614 -0.00839992 18.6494 0.00029632C19.1375 0.00899256 19.6031 0.208658 19.9482 0.557228C20.2934 0.905798 20.4911 1.37606 20.4997 1.86893C20.5083 2.36181 20.3272 2.83882 19.9944 3.19947L11.8312 11.4436C11.478 11.7999 10.9992 12 10.5 12C10.0008 12 9.52199 11.7999 9.16877 11.4436L1.00559 3.19947C0.672838 2.83882 0.491681 2.36181 0.500292 1.86893C0.508903 1.37606 0.706609 0.905797 1.05176 0.557227C1.3969 0.208657 1.86254 0.0089918 2.35058 0.000295608C2.83862 -0.00840059 3.31094 0.174551 3.66805 0.510608L10.5 7.41032L17.332 0.510609Z" fill="#AA14F0"/>
</svg>
