<svg width="31" height="30" viewBox="0 0 31 30" fill="none" xmlns="http://www.w3.org/2000/svg">
<mask id="mask0_39_2371" style="mask-type:alpha" maskUnits="userSpaceOnUse" x="0" y="0" width="31" height="30">
<rect x="0.5" width="30" height="30" fill="#D9D9D9"/>
</mask>
<g mask="url(#mask0_39_2371)">
<path d="M29.5285 22.5H20.4621C20.3096 22.5 20.1592 22.4639 20.0231 22.3949C19.8871 22.3258 19.7692 22.2256 19.6791 22.1025L18.5026 20.4908L15.986 17.0449L15.491 16.3673L14.2479 14.6671L14.2529 14.6601L13.5324 13.6745L13.5264 13.679L11.6098 11.0547C11.5407 10.9599 11.4501 10.8827 11.3455 10.8295C11.2409 10.7763 11.1252 10.7486 11.0078 10.7486C10.8905 10.7486 10.7748 10.7763 10.6701 10.8295C10.5655 10.8827 10.4749 10.9599 10.4058 11.0547L9.76528 11.9318L3.94858 19.8997C3.90807 19.9553 3.88369 20.021 3.87813 20.0895C3.87257 20.1581 3.88605 20.2269 3.91708 20.2882C3.9481 20.3496 3.99548 20.4013 4.05397 20.4374C4.11247 20.4736 4.17982 20.4929 4.24859 20.4933H9.61078C9.72774 20.4929 9.84299 20.4651 9.94721 20.4121C10.0514 20.359 10.1417 20.2821 10.2108 20.1877L12.4019 17.1904C12.4711 17.0957 12.5617 17.0188 12.6662 16.9657C12.7708 16.9126 12.8864 16.8849 13.0036 16.8849C13.1209 16.8849 13.2365 16.9126 13.3411 16.9657C13.4456 17.0188 13.5362 17.0957 13.6054 17.1904L13.9254 17.6279C14.019 17.7559 14.0694 17.9103 14.0694 18.0687C14.0694 18.2272 14.019 18.3816 13.9254 18.5095L12.4754 20.4938L11.2988 22.103C11.2087 22.2261 11.0907 22.3263 10.9546 22.3953C10.8184 22.4642 10.6679 22.5001 10.5153 22.5H1.4695C1.2904 22.4999 1.11483 22.4502 0.962231 22.3565C0.809635 22.2627 0.685974 22.1285 0.604948 21.9688C0.523923 21.809 0.488697 21.63 0.503175 21.4515C0.517652 21.2729 0.581268 21.1019 0.686972 20.9573L1.02748 20.4908L4.89862 15.1937L8.52474 10.2281L9.76728 8.52792L10.2273 7.89785C10.3172 7.77459 10.435 7.6743 10.571 7.60517C10.7071 7.53603 10.8575 7.5 11.0101 7.5C11.1627 7.5 11.3131 7.53603 11.4491 7.60517C11.5851 7.6743 11.7029 7.77459 11.7929 7.89785L14.7815 11.9898L15.494 12.9654L16.737 14.6656L17.159 15.2427L20.7642 20.1847C20.8331 20.2793 20.9234 20.3563 21.0276 20.4094C21.1319 20.4626 21.2472 20.4905 21.3642 20.4908H26.7494C26.8178 20.4903 26.8848 20.471 26.943 20.435C27.0012 20.399 27.0483 20.3476 27.0793 20.2866C27.1103 20.2256 27.1239 20.1572 27.1186 20.0889C27.1133 20.0207 27.0894 19.9552 27.0494 19.8997L20.5817 11.0517C20.5125 10.957 20.422 10.8799 20.3174 10.8267C20.2128 10.7736 20.0972 10.7459 19.9799 10.7459C19.8626 10.7459 19.7469 10.7736 19.6424 10.8267C19.5378 10.8799 19.4473 10.957 19.3781 11.0517L18.5836 12.1383C18.5144 12.2331 18.4238 12.3102 18.3192 12.3633C18.2146 12.4164 18.0989 12.4441 17.9816 12.4441C17.8642 12.4441 17.7486 12.4164 17.644 12.3633C17.5393 12.3102 17.4488 12.2331 17.3795 12.1383L17.06 11.6988C16.9665 11.5709 16.916 11.4165 16.916 11.258C16.916 11.0995 16.9665 10.9451 17.06 10.8172L19.1991 7.89835C19.2891 7.77518 19.4068 7.67499 19.5428 7.60592C19.6788 7.53684 19.8291 7.50084 19.9816 7.50084C20.1341 7.50084 20.2845 7.53684 20.4205 7.60592C20.5565 7.67499 20.6742 7.77518 20.7642 7.89835L30.3145 20.9593C30.4198 21.1042 30.483 21.2753 30.497 21.4538C30.5111 21.6324 30.4754 21.8113 30.394 21.9708C30.3126 22.1303 30.1887 22.2642 30.0359 22.3576C29.8832 22.451 29.7075 22.5003 29.5285 22.5V22.5Z" fill="url(#paint0_linear_39_2371)"/>
</g>
<defs>
<linearGradient id="paint0_linear_39_2371" x1="7.00269" y1="10.5637" x2="22.3351" y2="28.834" gradientUnits="userSpaceOnUse">
<stop stop-color="#AA14F0"/>
<stop offset="1" stop-color="#29ABE2"/>
</linearGradient>
</defs>
</svg>
