<svg width="29" height="30" viewBox="0 0 29 30" fill="none" xmlns="http://www.w3.org/2000/svg">
<path d="M14.6879 19.0845C13.6776 19.0845 12.7314 18.6956 12.0151 17.9847C11.3021 17.2739 10.9067 16.3351 10.9067 15.3326C10.9067 14.33 11.3021 13.3912 12.0151 12.6804C12.7314 11.9729 13.6776 11.5806 14.6879 11.5806C15.6983 11.5806 16.6444 11.9729 17.3608 12.6804C18.0738 13.3912 18.4691 14.33 18.4691 15.3326C18.4691 16.3351 18.0738 17.2739 17.3608 17.9847C17.0109 18.3346 16.5944 18.612 16.1356 18.8008C15.6767 18.9896 15.1847 19.086 14.6879 19.0845V19.0845ZM28.6199 11.1883L26.41 13.0626C26.5148 13.6997 26.5688 14.3502 26.5688 14.9973C26.5688 15.6444 26.5148 16.2982 26.41 16.9319L28.6199 18.8062C28.7869 18.948 28.9064 19.1369 28.9625 19.3477C29.0186 19.5585 29.0088 19.7813 28.9342 19.9865L28.9038 20.0736C28.2956 21.7612 27.3843 23.3255 26.214 24.6906L26.1532 24.761C26.0111 24.9268 25.8217 25.046 25.61 25.1029C25.3982 25.1597 25.1741 25.1516 24.9671 25.0796L22.2233 24.1106C21.2096 24.9354 20.081 25.5859 18.8577 26.0385L18.3272 28.8851C18.2872 29.0996 18.1824 29.2969 18.0266 29.4508C17.8709 29.6047 17.6717 29.708 17.4554 29.7469L17.3642 29.7636C15.6071 30.0788 13.7553 30.0788 11.9982 29.7636L11.9069 29.7469C11.6907 29.708 11.4914 29.6047 11.3357 29.4508C11.18 29.2969 11.0752 29.0996 11.0351 28.8851L10.5012 26.0251C9.28959 25.5688 8.16086 24.9199 7.15932 24.1039L4.39522 25.0796C4.1883 25.1522 3.96401 25.1606 3.75216 25.1037C3.5403 25.0468 3.35091 24.9273 3.20915 24.761L3.14833 24.6906C1.98015 23.324 1.06908 21.7601 0.458572 20.0736L0.42816 19.9865C0.276101 19.5673 0.401127 19.0979 0.742416 18.8062L2.97938 16.9118C2.87462 16.2815 2.82394 15.6377 2.82394 15.0006C2.82394 14.3569 2.87462 13.7131 2.97938 13.0895L0.749174 11.1951C0.582232 11.0532 0.46275 10.8644 0.406615 10.6535C0.35048 10.4427 0.360352 10.2199 0.434918 10.0148L0.46533 9.92764C1.07695 8.24111 1.97916 6.682 3.15509 5.31065L3.21591 5.24024C3.35802 5.07444 3.54741 4.95526 3.75914 4.8984C3.97087 4.84153 4.19499 4.84966 4.40197 4.92171L7.16607 5.89741C8.17304 5.07594 9.2949 4.42547 10.508 3.97618L11.0419 1.11612C11.0819 0.901677 11.1868 0.70439 11.3425 0.550474C11.4982 0.396559 11.6974 0.293301 11.9137 0.254418L12.0049 0.237653C13.7793 -0.0792181 15.5965 -0.0792181 17.3709 0.237653L17.4622 0.254418C17.6784 0.293301 17.8777 0.396559 18.0334 0.550474C18.1891 0.70439 18.294 0.901677 18.334 1.11612L18.8645 3.96277C20.0877 4.41877 21.2163 5.06588 22.2301 5.89071L24.9739 4.92171C25.1808 4.84909 25.4051 4.84067 25.617 4.89756C25.8288 4.95446 26.0182 5.07398 26.16 5.24024L26.2208 5.31065C27.3967 6.6887 28.2989 8.24111 28.9105 9.92764L28.941 10.0148C29.0863 10.4306 28.9612 10.8966 28.6199 11.1883ZM14.6879 9.43811C11.4068 9.43811 8.74749 12.0769 8.74749 15.3326C8.74749 18.5883 11.4068 21.227 14.6879 21.227C17.969 21.227 20.6284 18.5883 20.6284 15.3326C20.6284 12.0769 17.969 9.43811 14.6879 9.43811Z" fill="url(#paint0_linear_39_2331)"/>
<defs>
<linearGradient id="paint0_linear_39_2331" x1="29.0006" y1="15.2727" x2="0.364258" y2="15.2727" gradientUnits="userSpaceOnUse">
<stop stop-color="#A9A9A9"/>
<stop offset="0.505591" stop-color="#F5F5F5"/>
<stop offset="1" stop-color="#A9A9A9"/>
</linearGradient>
</defs>
</svg>
