<svg width="48" height="24" viewBox="0 0 48 24" fill="none" xmlns="http://www.w3.org/2000/svg">
<path d="M46.4455 24H31.9394C31.6953 23.9999 31.4546 23.9423 31.237 23.8318C31.0193 23.7213 30.8307 23.561 30.6866 23.3639L28.8041 20.7852L24.7776 15.2718L23.9856 14.1877L21.9967 11.4674L22.0047 11.4562L20.8519 9.87921L20.8423 9.88641L17.7757 5.68753C17.6651 5.53578 17.5202 5.41231 17.3528 5.32719C17.1854 5.24206 17.0003 5.19769 16.8125 5.19769C16.6247 5.19769 16.4396 5.24206 16.2722 5.32719C16.1048 5.41231 15.9599 5.53578 15.8493 5.68753L14.8245 7.09089L5.51773 19.8395C5.45291 19.9285 5.41391 20.0336 5.40501 20.1433C5.39612 20.253 5.41768 20.363 5.46732 20.4612C5.51697 20.5594 5.59276 20.642 5.68636 20.6999C5.77995 20.7578 5.88771 20.7887 5.99775 20.7892H14.5772C14.7644 20.7887 14.9488 20.7442 15.1155 20.6593C15.2823 20.5744 15.4268 20.4514 15.5373 20.3004L19.043 15.5046C19.1537 15.3532 19.2987 15.23 19.466 15.1451C19.6332 15.0602 19.8182 15.0159 20.0058 15.0159C20.1934 15.0159 20.3784 15.0602 20.5457 15.1451C20.713 15.23 20.8579 15.3532 20.9687 15.5046L21.4807 16.2047C21.6304 16.4094 21.7111 16.6564 21.7111 16.91C21.7111 17.1636 21.6304 17.4106 21.4807 17.6153L19.1606 20.79L17.2781 23.3647C17.1339 23.5618 16.9452 23.722 16.7273 23.8324C16.5095 23.9428 16.2687 24.0002 16.0245 24H1.5512C1.26464 23.9998 0.983725 23.9203 0.73957 23.7703C0.495416 23.6203 0.297558 23.4056 0.167917 23.15C0.0382771 22.8945 -0.0180842 22.608 0.00507987 22.3223C0.028244 22.0367 0.130028 21.7631 0.299155 21.5317L0.843973 20.7852L7.03779 12.3099L12.8396 4.36498L14.8277 1.64467L15.5637 0.636561C15.7076 0.439338 15.896 0.278887 16.1137 0.168271C16.3313 0.0576551 16.572 0 16.8161 0C17.0603 0 17.3009 0.0576551 17.5186 0.168271C17.7362 0.278887 17.9247 0.439338 18.0686 0.636561L22.8503 7.1837L23.9904 8.74468L25.9792 11.465L26.6545 12.3883L32.4227 20.2956C32.533 20.4469 32.6774 20.57 32.8442 20.6551C33.011 20.7402 33.1955 20.7848 33.3827 20.7852H41.999C42.1085 20.7845 42.2156 20.7536 42.3088 20.6959C42.4019 20.6383 42.4773 20.5562 42.5269 20.4585C42.5765 20.3609 42.5982 20.2515 42.5898 20.1423C42.5813 20.0331 42.543 19.9284 42.479 19.8395L32.1306 5.68273C32.02 5.53113 31.8751 5.4078 31.7078 5.32278C31.5405 5.23776 31.3555 5.19344 31.1678 5.19344C30.9801 5.19344 30.7951 5.23776 30.6278 5.32278C30.4605 5.4078 30.3156 5.53113 30.205 5.68273L28.9337 7.42133C28.823 7.57293 28.6781 7.69626 28.5107 7.78128C28.3433 7.8663 28.1582 7.91061 27.9705 7.91061C27.7828 7.91061 27.5977 7.8663 27.4303 7.78128C27.2629 7.69626 27.118 7.57293 27.0073 7.42133L26.496 6.71805C26.3463 6.51337 26.2656 6.26636 26.2656 6.01277C26.2656 5.75917 26.3463 5.51216 26.496 5.30749L29.9186 0.637361C30.0625 0.440293 30.2509 0.279981 30.4685 0.169465C30.686 0.0589486 30.9266 0.00134903 31.1706 0.00134903C31.4146 0.00134903 31.6552 0.0589486 31.8728 0.169465C32.0903 0.279981 32.2787 0.440293 32.4227 0.637361L47.7032 21.5349C47.8717 21.7666 47.9728 22.0405 47.9952 22.3261C48.0177 22.6118 47.9606 22.898 47.8304 23.1533C47.7002 23.4085 47.5019 23.6227 47.2575 23.7721C47.0131 23.9216 46.732 24.0004 46.4455 24Z" fill="url(#paint0_linear_1_75)"/>
<defs>
<linearGradient id="paint0_linear_1_75" x1="10.4043" y1="4.90184" x2="34.9362" y2="34.1344" gradientUnits="userSpaceOnUse">
<stop stop-color="#AA14F0"/>
<stop offset="1" stop-color="#29ABE2"/>
</linearGradient>
</defs>
</svg>
