<svg width="40" height="40" viewBox="0 0 40 40" fill="none" xmlns="http://www.w3.org/2000/svg">
<g clip-path="url(#clip0_1_183)">
<path d="M20 40C31.0457 40 40 31.0457 40 20C40 8.9543 31.0457 0 20 0C8.9543 0 0 8.9543 0 20C0 31.0457 8.9543 40 20 40Z" fill="#3E73C4"/>
<path d="M25.0274 22.655C25.0274 20 23.4274 19.09 20.2274 18.71C17.9424 18.4062 17.4862 17.8 17.4862 16.7375C17.4862 15.675 18.2487 14.9925 19.7712 14.9925C21.1424 14.9925 21.9049 15.4475 22.2849 16.5862C22.3245 16.6963 22.3969 16.7917 22.4924 16.8594C22.5878 16.9271 22.7017 16.964 22.8187 16.965H24.0374C24.1078 16.9669 24.1779 16.9544 24.2433 16.9284C24.3088 16.9024 24.3682 16.8634 24.4182 16.8137C24.4681 16.764 24.5074 16.7047 24.5337 16.6394C24.56 16.5741 24.5727 16.5041 24.5712 16.4337V16.3587C24.4223 15.5349 24.0054 14.7832 23.3854 14.2206C22.7653 13.658 21.9769 13.3159 21.1424 13.2475V11.4275C21.1424 11.1237 20.9137 10.8962 20.5337 10.82H19.3899C19.0862 10.82 18.8574 11.0475 18.7812 11.4275V13.1725C16.4949 13.475 15.0487 14.9925 15.0487 16.89C15.0487 19.3925 16.5712 20.3787 19.7712 20.7587C21.9049 21.1375 22.59 21.5937 22.59 22.8075C22.59 24.02 21.5237 24.855 20.0762 24.855C18.095 24.855 17.4099 24.0212 17.1812 22.8825C17.1062 22.58 16.8762 22.4275 16.6474 22.4275H15.3524C15.2822 22.4258 15.2123 22.4383 15.147 22.4644C15.0817 22.4905 15.0223 22.5295 14.9726 22.5792C14.9228 22.6289 14.8836 22.6881 14.8574 22.7533C14.8311 22.8186 14.8184 22.8884 14.8199 22.9587V23.0337C15.1237 24.9312 16.3437 26.2962 18.8575 26.6762V28.4975C18.8575 28.8 19.0862 29.0287 19.4662 29.1037H20.61C20.9137 29.1037 21.1424 28.8762 21.2187 28.4975V26.675C23.5049 26.2962 25.0274 24.7025 25.0274 22.6537V22.655Z" fill="white"/>
<path d="M16.1151 30.6212C10.1726 28.4962 7.12511 21.8962 9.33511 16.055C10.4776 12.8675 12.9914 10.4412 16.1151 9.30248C16.4201 9.15123 16.5714 8.92373 16.5714 8.54373V7.48123C16.5714 7.17873 16.4201 6.95123 16.1151 6.87498C16.0389 6.87498 15.8864 6.87498 15.8101 6.94998C14.0957 7.48539 12.504 8.35465 11.1269 9.5077C9.74975 10.6608 8.6143 12.0748 7.78592 13.6685C6.95754 15.2622 6.45258 17.004 6.30012 18.7936C6.14767 20.5833 6.35073 22.3854 6.89761 24.0962C8.26761 28.3462 11.5439 31.6087 15.8101 32.9737C16.1151 33.125 16.4201 32.9737 16.4951 32.67C16.5714 32.595 16.5714 32.5175 16.5714 32.3662V31.3037C16.5714 31.0762 16.3439 30.7737 16.1151 30.6212V30.6212ZM24.1901 6.95123C23.8851 6.79873 23.5801 6.95123 23.5051 7.25373C23.4289 7.32998 23.4289 7.40623 23.4289 7.55748V8.61998C23.4289 8.92373 23.6564 9.22623 23.8851 9.37873C29.8276 11.5037 32.8751 18.1037 30.6651 23.945C29.5226 27.1325 27.0089 29.5587 23.8851 30.6975C23.5801 30.8487 23.4289 31.0762 23.4289 31.4562V32.5187C23.4289 32.8212 23.5801 33.0487 23.8851 33.125C23.9614 33.125 24.1139 33.125 24.1901 33.05C25.9046 32.5146 27.4962 31.6453 28.8733 30.4923C30.2505 29.3392 31.3859 27.9251 32.2143 26.3315C33.0427 24.7378 33.5476 22.996 33.7001 21.2063C33.8526 19.4167 33.6495 17.6146 33.1026 15.9037C31.7326 11.5787 28.3801 8.31623 24.1901 6.95123V6.95123Z" fill="white"/>
</g>
<defs>
<clipPath id="clip0_1_183">
<rect width="40" height="40" fill="white"/>
</clipPath>
</defs>
</svg>
