<svg width="140" height="70" viewBox="0 0 140 70" fill="none" xmlns="http://www.w3.org/2000/svg">
<path d="M135.466 70H93.1567C92.4447 69.9998 91.7427 69.8317 91.1078 69.5094C90.4729 69.187 89.923 68.7195 89.5026 68.1448L84.012 60.6236L72.268 44.5428L69.9579 41.3808L64.157 33.4465L64.1804 33.4139L60.8179 28.8143L60.7899 28.8354L51.8459 16.5886C51.5233 16.146 51.1006 15.7859 50.6124 15.5376C50.1242 15.2893 49.5842 15.1599 49.0365 15.1599C48.4888 15.1599 47.9488 15.2893 47.4606 15.5376C46.9724 15.7859 46.5498 16.146 46.2271 16.5886L43.238 20.6818L16.0934 57.8653C15.9043 58.1247 15.7906 58.4312 15.7646 58.7512C15.7387 59.0711 15.8016 59.392 15.9464 59.6785C16.0911 59.965 16.3122 60.2059 16.5852 60.3747C16.8582 60.5435 17.1725 60.6337 17.4934 60.6353H42.517C43.0628 60.6338 43.6006 60.5039 44.087 60.2562C44.5734 60.0086 44.9948 59.65 45.3171 59.2094L55.5421 45.2219C55.8651 44.7801 56.2877 44.4208 56.7757 44.1732C57.2636 43.9255 57.8031 43.7964 58.3503 43.7964C58.8975 43.7964 59.437 43.9255 59.925 44.1732C60.4129 44.4208 60.8356 44.7801 61.1586 45.2219L62.652 47.2638C63.0887 47.8607 63.324 48.5812 63.324 49.3208C63.324 50.0605 63.0887 50.7809 62.652 51.3779L55.8851 60.6376L50.3946 68.1471C49.9738 68.7219 49.4234 69.1892 48.7881 69.5112C48.1527 69.8331 47.4504 70.0006 46.7381 70H4.52433C3.68855 69.9995 2.8692 69.7677 2.15708 69.3301C1.44496 68.8926 0.867877 68.2664 0.489759 67.521C0.111641 66.7755 -0.0527456 65.94 0.0148163 65.1068C0.0823782 64.2737 0.379248 63.4756 0.872535 62.8008L2.46159 60.6236L20.5269 35.9038L37.4488 12.7312L43.2473 4.79697L45.3941 1.85664C45.8138 1.2814 46.3634 0.81342 46.9982 0.49079C47.633 0.168161 48.335 0 49.047 0C49.7591 0 50.4611 0.168161 51.0958 0.49079C51.7306 0.81342 52.2802 1.2814 52.7 1.85664L66.6468 20.9525L69.9719 25.5053L75.7728 33.4395L77.7422 36.1325L94.5661 59.1954C94.8879 59.6367 95.3091 59.9959 95.7955 60.244C96.282 60.4922 96.8201 60.6222 97.3662 60.6236H122.497C122.816 60.6213 123.129 60.5312 123.401 60.3632C123.672 60.1951 123.892 59.9556 124.037 59.6708C124.181 59.386 124.245 59.0669 124.22 58.7484C124.196 58.43 124.084 58.1245 123.897 57.8653L93.7144 16.5746C93.3917 16.1325 92.9691 15.7728 92.4811 15.5248C91.9931 15.2768 91.4535 15.1475 90.9061 15.1475C90.3587 15.1475 89.8191 15.2768 89.3311 15.5248C88.8431 15.7728 88.4206 16.1325 88.0979 16.5746L84.3901 21.6455C84.0671 22.0877 83.6443 22.4474 83.1562 22.6954C82.668 22.9434 82.1282 23.0726 81.5806 23.0726C81.0331 23.0726 80.4933 22.9434 80.0051 22.6954C79.5169 22.4474 79.0942 22.0877 78.7712 21.6455L77.2801 19.5943C76.8435 18.9973 76.6081 18.2769 76.6081 17.5372C76.6081 16.7976 76.8435 16.0771 77.2801 15.4802L87.2625 1.85897C87.6823 1.28419 88.2318 0.816612 88.8663 0.494273C89.5009 0.171933 90.2026 0.00393467 90.9143 0.00393467C91.626 0.00393467 92.3277 0.171933 92.9622 0.494273C93.5968 0.816612 94.1463 1.28419 94.5661 1.85897L139.134 62.8102C139.626 63.4861 139.921 64.2848 139.986 65.1179C140.052 65.951 139.885 66.786 139.505 67.5303C139.126 68.2747 138.547 68.8995 137.834 69.3354C137.121 69.7713 136.302 70.0013 135.466 70Z" fill="url(#paint0_linear_39_3350)"/>
<defs>
<linearGradient id="paint0_linear_39_3350" x1="30.3459" y1="14.297" x2="101.897" y2="99.5588" gradientUnits="userSpaceOnUse">
<stop stop-color="#AA14F0"/>
<stop offset="1" stop-color="#29ABE2"/>
</linearGradient>
</defs>
</svg>
