<svg width="16" height="17" viewBox="0 0 16 17" fill="none" xmlns="http://www.w3.org/2000/svg">
<path fill-rule="evenodd" clip-rule="evenodd" d="M7.25129 0.516581C5.69441 0.667208 4.15122 1.30025 2.94117 2.28468C2.58524 2.57425 2.02169 3.14228 1.73781 3.49768C1.02003 4.39624 0.431839 5.61168 0.187892 6.7003C0.0346974 7.3841 0 7.71651 0 8.50093C0 9.28535 0.0346974 9.61776 0.187892 10.3016C0.435628 11.4071 1.06291 12.689 1.78147 13.5584C2.53551 14.4706 3.42656 15.1754 4.47562 15.6897C5.27494 16.0815 5.99081 16.304 6.90256 16.4442C7.40705 16.5217 8.59014 16.5217 9.09463 16.4442C10.5858 16.2149 11.9417 15.6238 13.056 14.7171C13.9417 13.9965 14.6736 13.0717 15.1872 12.0239C15.5791 11.2248 15.8017 10.5089 15.9418 9.59696C16.0194 9.09247 16.0194 7.90938 15.9418 7.40489C15.8017 6.49314 15.5791 5.77728 15.1873 4.97795C14.7693 4.12498 14.3032 3.47607 13.6304 2.81009C12.9698 2.15622 12.3647 1.72654 11.5216 1.31262C10.7318 0.92487 10.0006 0.696206 9.12595 0.563397C8.73263 0.503679 7.66111 0.476904 7.25129 0.516581ZM12.7807 3.74882C12.6892 3.97542 9.76916 10.2171 9.74195 10.2443C9.69892 10.2873 3.23347 13.2974 3.21778 13.2817C3.19617 13.2601 6.2186 6.79268 6.26996 6.75062C6.32313 6.70709 12.7188 3.71748 12.7697 3.71237C12.7845 3.7109 12.7894 3.72731 12.7807 3.74882ZM7.68629 7.67849C7.4932 7.74663 7.2417 8.00348 7.17425 8.20146C7.05917 8.53919 7.13401 8.86171 7.38591 9.11361C7.74197 9.46967 8.25522 9.46967 8.61128 9.11361C8.96733 8.75756 8.96733 8.2443 8.61128 7.88824C8.3606 7.63756 8.02064 7.56046 7.68629 7.67849Z" fill="#29ABE2"/>
</svg>
