<svg width="310" height="220" viewBox="0 0 310 220" fill="none" xmlns="http://www.w3.org/2000/svg">
<mask id="mask0_944_266" style="mask-type:alpha" maskUnits="userSpaceOnUse" x="0" y="0" width="310" height="220">
<rect width="310" height="220" rx="14" fill="#D9D9D9"/>
</mask>
<g mask="url(#mask0_944_266)">
<path d="M124.159 39.6606C81.4738 58.4993 60.381 104.435 77.0426 142.273C93.7041 180.112 141.819 195.499 184.505 176.709C227.19 157.919 248.282 111.935 231.605 74.096C214.927 36.2573 166.844 20.9025 124.159 39.6606ZM175.723 156.709C145.509 170.048 111.429 159.128 99.6339 132.338C87.8387 105.548 102.776 72.9993 133.005 59.6606C163.235 46.3219 197.283 57.2413 209.094 84.0477C220.905 110.854 205.92 143.435 175.69 156.773L175.723 156.709Z" fill="url(#paint0_linear_944_266)"/>
<path d="M77.0426 142.338L78.5412 144.758C82.1024 150.4 86.4118 155.533 91.3515 160.016C95.1967 163.448 99.3809 166.48 103.84 169.064C109.08 172.04 114.636 174.421 120.404 176.161C126.803 178.047 133.401 179.173 140.063 179.516C147.163 179.881 154.281 179.404 161.269 178.097C168.477 176.765 175.507 174.6 182.216 171.645C183.699 170.919 185.842 170.032 187.276 169.226L189.645 167.984L192.03 166.613C195.177 164.768 198.212 162.738 201.118 160.532C206.78 156.236 211.918 151.288 216.426 145.79C220.66 140.632 224.277 134.997 227.206 129C229.828 123.573 231.823 117.864 233.152 111.984C234.268 106.951 234.857 101.816 234.908 96.6612C234.913 92.6267 234.6 88.5981 233.973 84.6127C233.393 81.274 232.813 78.645 232.362 76.8869L231.589 74.1611L232.958 76.645C233.426 77.4514 233.877 78.4999 234.457 79.7257C235.037 80.9515 235.585 82.4031 236.197 84.0482C237.633 88.0366 238.664 92.1595 239.275 96.3547C240.081 101.862 240.189 107.449 239.597 112.984C238.97 119.617 237.424 126.131 235.005 132.339C232.39 139.303 228.851 145.884 224.483 151.903C222.165 155.097 219.629 158.125 216.893 160.968C215.523 162.435 214.057 163.806 212.591 165.193C211.124 166.58 209.561 167.903 207.95 169.145C204.749 171.725 201.373 174.08 197.847 176.193L195.172 177.806L192.368 179.306C190.37 180.387 188.887 181 186.857 181.984C179.297 185.302 171.341 187.633 163.186 188.919C159.194 189.571 155.161 189.937 151.117 190.016C147.179 190.118 143.238 189.951 139.322 189.516C131.91 188.698 124.642 186.886 117.713 184.129C111.518 181.714 105.684 178.458 100.375 174.451C95.8882 171.156 91.8381 167.302 88.3222 162.984C85.6398 159.705 83.2916 156.166 81.3127 152.419C80.5231 150.806 79.798 149.484 79.3146 148.209C78.8312 146.935 78.3317 145.903 78.0416 144.984L77.0426 142.338Z" fill="#AA14F0"/>
<path d="M99.6018 132.387L98.6027 130.645C97.6117 129.012 96.7755 127.289 96.1051 125.5C95.5555 124.206 95.0821 122.881 94.6871 121.532C94.3165 120.081 93.8975 118.468 93.543 116.693C93.1885 114.919 93.0596 113.048 92.9146 111.048C92.9146 110.048 92.9146 109.016 92.9146 107.968C92.8808 106.891 92.9184 105.813 93.0274 104.742C93.2057 102.435 93.5503 100.144 94.0587 97.887C94.3165 96.7096 94.5421 95.4999 94.8966 94.3064C95.2511 93.1128 95.6862 91.9354 96.089 90.7257C96.3146 90.1128 96.4757 89.4838 96.7497 88.8871L97.5553 87.1128C98.1193 85.9193 98.6188 84.6773 99.1667 83.4838C100.471 81.0506 101.935 78.7068 103.55 76.4677C106.891 71.7358 110.884 67.5004 115.409 63.8871L118.938 61.1774C120.147 60.3226 121.436 59.5644 122.693 58.7741L124.61 57.5806L126.608 56.5644L128.622 55.5644L129.622 55.0483L130.121 54.8064L130.379 54.6773H130.508L130.814 54.5483L134.697 53.0644L136.647 52.3386L138.887 51.6774C140.369 51.258 141.868 50.7903 143.35 50.4677L147.733 49.6934C153.455 48.7903 159.276 48.698 165.023 49.4193C167.74 49.7356 170.432 50.2367 173.08 50.9193C174.385 51.258 175.642 51.7096 176.899 52.1128C178.148 52.4628 179.366 52.916 180.541 53.4677L184.005 55.0806C185.117 55.629 186.164 56.2741 187.228 56.8709C189.229 58.0238 191.146 59.3174 192.964 60.7419C193.834 61.3888 194.663 62.089 195.446 62.8386L197.702 64.9354C199.087 66.4031 200.296 67.8709 201.44 69.2096C202.584 70.5483 203.39 72.0483 204.212 73.3225C204.925 74.5133 205.576 75.7408 206.161 77C207.033 78.7141 207.739 80.507 208.272 82.3547C208.675 83.6128 208.901 84.2741 208.901 84.2741L207.692 82.6612C206.658 81.1102 205.516 79.6335 204.276 78.2418C203.45 77.2252 202.568 76.2559 201.633 75.3386C200.554 74.387 199.506 73.2903 198.282 72.2257C197.057 71.1612 195.655 70.1613 194.189 69.129L191.836 67.6612C191.046 67.1173 190.216 66.6322 189.355 66.2096C187.58 65.2419 185.745 64.3906 183.86 63.6612C182.877 63.3064 181.926 62.8386 180.895 62.516L177.753 61.5806C176.695 61.256 175.619 60.9921 174.53 60.7902C173.435 60.5805 172.323 60.2903 171.179 60.129C168.855 59.7897 166.515 59.5743 164.169 59.4838C162.977 59.4838 161.784 59.3386 160.56 59.4838L156.918 59.6613C155.687 59.7373 154.461 59.8772 153.244 60.0805C152.004 60.1976 150.772 60.3862 149.554 60.6451L145.88 61.4354L142.4 62.4677L140.659 62.9677L138.742 63.7096L134.875 65.3225L135.052 65.2418H134.939L134.73 65.3548L134.311 65.5644L133.44 65.9838L131.732 66.8064L130.024 67.6451L128.413 68.629C127.349 69.3064 126.238 69.9193 125.19 70.5967L122.129 72.7742C121.12 73.5002 120.152 74.2808 119.228 75.1128C118.294 75.9354 117.262 76.6451 116.424 77.5322L113.846 80.129C112.96 80.9677 112.235 81.9354 111.461 82.8225C109.938 84.6151 108.513 86.4888 107.191 88.4354C106.547 89.4031 106.015 90.4032 105.419 91.3709C104.826 92.3175 104.288 93.2977 103.807 94.3064L102.373 97.258C101.938 98.2419 101.616 99.2418 101.229 100.21C100.52 102.031 99.9224 103.895 99.4406 105.79C99.1768 106.717 98.9723 107.66 98.8283 108.613C98.6671 109.527 98.506 110.43 98.3449 111.322C98.1032 113.113 98.0388 114.822 97.8615 116.452C97.6843 118.081 97.8615 119.581 97.8615 121.016C97.8508 121.696 97.8993 122.376 98.0065 123.048L98.216 124.903C98.4048 126.773 98.7278 128.628 99.1828 130.452L99.6018 132.387Z" fill="#29ABE2"/>
<path d="M231.605 74.161C231.605 74.161 231.186 73.2739 230.38 71.6288C229.186 69.266 227.852 66.977 226.384 64.7739C224.094 61.3624 221.506 58.1616 218.649 55.2094C214.931 51.4034 210.802 48.0225 206.339 45.1288C201.076 41.6982 195.402 38.9453 189.452 36.9352C182.813 34.6896 175.924 33.2703 168.939 32.7094C161.474 32.1224 153.966 32.4746 146.589 33.7578C131.307 36.4423 116.904 42.7958 104.613 52.2739C98.6931 56.8638 93.3669 62.1734 88.7573 68.0804C84.4713 73.6215 80.8782 79.6664 78.0578 86.0804C75.511 91.861 73.708 97.9418 72.692 104.177C71.8106 109.424 71.5187 114.753 71.8218 120.064C72.0737 124.164 72.6884 128.234 73.6588 132.226C74.2954 134.798 75.0864 137.329 76.0275 139.806L77.0427 142.419L75.947 139.838C73.3984 133.531 71.8122 126.876 71.2417 120.096C70.7832 114.717 70.9671 109.303 71.7896 103.967C72.7438 97.6609 74.487 91.4996 76.9782 85.6288C79.7269 79.0615 83.3182 72.8805 87.6616 67.2416C92.3349 61.2094 97.7487 55.7904 103.775 51.1126C109.967 46.2666 116.732 42.2037 123.917 39.0158C131.135 35.8626 138.711 33.6039 146.476 32.29C153.98 31.0218 161.613 30.7021 169.197 31.3385C176.287 31.9341 183.269 33.4522 189.967 35.8546C195.972 37.967 201.684 40.834 206.967 44.3868C211.439 47.3724 215.544 50.8751 219.197 54.8223C221.997 57.8664 224.521 61.1534 226.739 64.6449C228.146 66.8938 229.426 69.2201 230.574 71.6126L231.605 74.161Z" fill="#DFFEFF"/>
<path d="M209.062 84.1123L209.787 85.9672C210.538 87.6816 211.141 89.4567 211.592 91.2736C211.98 92.566 212.292 93.8801 212.526 95.2091C212.736 96.6607 213.026 98.2252 213.203 99.9187C213.38 101.612 213.38 103.419 213.38 105.322C213.3 106.29 213.235 107.258 213.171 108.258C213.128 109.286 213.015 110.309 212.832 111.322C212.516 113.501 212.053 115.657 211.447 117.774C211.124 118.854 210.866 119.983 210.48 121.08C210.093 122.177 209.626 123.274 209.175 124.403C208.75 125.545 208.244 126.655 207.66 127.725C207.096 128.822 206.58 129.967 205.936 131.048C204.636 133.293 203.188 135.448 201.601 137.499C198.359 141.804 194.567 145.665 190.322 148.983L186.986 151.483C185.842 152.257 184.633 152.951 183.457 153.693L181.669 154.806L179.799 155.741L175.997 157.645L172.129 159.128L170.179 159.87L168.165 160.451C166.812 160.822 165.458 161.241 164.121 161.58L160.028 162.241C154.707 163.151 149.291 163.368 143.914 162.887C141.347 162.671 138.796 162.294 136.276 161.757C135.036 161.483 133.843 161.096 132.651 160.79C131.465 160.499 130.301 160.121 129.17 159.661L125.867 158.386C124.787 157.935 123.772 157.37 122.757 156.87C120.808 155.922 118.924 154.844 117.117 153.645C116.248 153.096 115.419 152.487 114.636 151.822L112.331 149.999C110.913 148.725 109.673 147.403 108.464 146.225C107.256 145.048 106.369 143.677 105.435 142.548C104.621 141.478 103.868 140.363 103.179 139.209C102.153 137.635 101.258 135.979 100.504 134.258L99.6339 132.451L100.585 134.209C101.409 135.897 102.368 137.515 103.453 139.048C104.164 140.17 104.945 141.248 105.789 142.274C106.756 143.37 107.739 144.596 108.899 145.806C110.059 147.016 111.397 148.193 112.831 149.403L115.151 151.145C115.931 151.783 116.754 152.366 117.617 152.887C119.414 154.054 121.287 155.1 123.224 156.016C124.223 156.467 125.222 156.999 126.286 157.435L129.509 158.612C130.619 159.043 131.761 159.388 132.925 159.645C134.101 159.935 135.277 160.29 136.486 160.532C138.962 161.013 141.464 161.353 143.979 161.548C149.241 161.994 154.539 161.75 159.738 160.822L163.718 160.032C165.023 159.709 166.312 159.29 167.617 158.919L169.567 158.354L171.501 157.596L175.368 156.08L179.026 154.29L180.863 153.37L182.603 152.306C183.763 151.596 184.956 150.919 186.084 150.161L189.306 147.758C193.501 144.543 197.26 140.796 200.489 136.612C202.039 134.62 203.476 132.541 204.792 130.387C205.436 129.322 205.952 128.225 206.532 127.161C207.144 126.124 207.682 125.046 208.143 123.935C208.594 122.854 209.03 121.774 209.481 120.709C209.932 119.645 210.157 118.548 210.496 117.483C211.128 115.439 211.618 113.353 211.962 111.241C212.166 110.252 212.301 109.25 212.365 108.241C212.446 107.258 212.542 106.306 212.639 105.37C212.639 103.483 212.639 101.709 212.639 100.016C212.639 98.322 212.284 96.7898 212.123 95.3381C211.936 94.0215 211.667 92.7178 211.318 91.4348C210.923 89.6046 210.385 87.8087 209.706 86.064L209.062 84.1123Z" fill="#DFFEFF"/>
</g>
<defs>
<linearGradient id="paint0_linear_944_266" x1="107.317" y1="62.9246" x2="252.138" y2="156.494" gradientUnits="userSpaceOnUse">
<stop stop-color="#AA14F0"/>
<stop offset="1" stop-color="#29ABE2"/>
</linearGradient>
</defs>
</svg>
