<svg width="237" height="50" viewBox="0 0 237 50" fill="none" xmlns="http://www.w3.org/2000/svg">
<path d="M96.7615 50H66.5405C66.0319 49.9998 65.5305 49.8798 65.077 49.6495C64.6235 49.4193 64.2307 49.0854 63.9304 48.6748L60.0086 43.3026L51.62 31.8163L49.9699 29.5577L45.8265 23.8904L45.8431 23.867L43.4414 20.5817L43.4214 20.5967L37.0328 11.849C36.8023 11.5329 36.5004 11.2756 36.1517 11.0983C35.803 10.921 35.4173 10.8285 35.0261 10.8285C34.6349 10.8285 34.2492 10.921 33.9004 11.0983C33.5517 11.2756 33.2498 11.5329 33.0194 11.849L30.8843 14.7727L11.4953 41.3324C11.3602 41.5176 11.279 41.7366 11.2604 41.9651C11.2419 42.1937 11.2868 42.4229 11.3903 42.6275C11.4937 42.8321 11.6516 43.0042 11.8466 43.1248C12.0416 43.2454 12.2661 43.3098 12.4953 43.3109H30.3693C30.7591 43.3098 31.1433 43.2171 31.4907 43.0402C31.8381 42.8633 32.1391 42.6071 32.3693 42.2925L39.6729 32.3013C39.9036 31.9858 40.2055 31.7292 40.5541 31.5523C40.9026 31.3753 41.2879 31.2831 41.6788 31.2831C42.0697 31.2831 42.455 31.3753 42.8036 31.5523C43.1521 31.7292 43.454 31.9858 43.6847 32.3013L44.7514 33.7598C45.0633 34.1862 45.2315 34.7008 45.2315 35.2292C45.2315 35.7575 45.0633 36.2721 44.7514 36.6985L39.9179 43.3126L35.9961 48.6765C35.6956 49.0871 35.3024 49.4209 34.8486 49.6508C34.3948 49.8808 33.8931 50.0004 33.3844 50H3.23167C2.63468 49.9997 2.04943 49.8341 1.54077 49.5215C1.03212 49.209 0.619912 48.7617 0.349828 48.2293C0.0797439 47.6968 -0.0376754 47.1 0.0105831 46.5049C0.0588416 45.9098 0.270892 45.3397 0.623239 44.8577L1.75828 43.3026L14.6621 25.6456L26.7491 9.09371L30.8909 3.4264L32.4243 1.32617C32.7241 0.915287 33.1167 0.581014 33.5701 0.350564C34.0236 0.120115 34.525 0 35.0336 0C35.5422 0 36.0436 0.120115 36.497 0.350564C36.9504 0.581014 37.343 0.915287 37.6428 1.32617L47.6049 14.966L49.9799 18.2181L54.1234 23.8854L55.5301 25.8089L67.5472 42.2825C67.777 42.5976 68.0779 42.8542 68.4254 43.0315C68.7729 43.2087 69.1572 43.3016 69.5473 43.3026H87.4979C87.726 43.301 87.9493 43.2366 88.1433 43.1166C88.3372 42.9965 88.4945 42.8254 88.5977 42.622C88.701 42.4185 88.7463 42.1906 88.7287 41.9632C88.7111 41.7357 88.6312 41.5175 88.4979 41.3324L66.9388 11.839C66.7083 11.5232 66.4065 11.2663 66.0579 11.0891C65.7094 10.912 65.3239 10.8197 64.9329 10.8197C64.542 10.8197 64.1565 10.912 63.8079 11.0891C63.4594 11.2663 63.1576 11.5232 62.927 11.839L60.2786 15.4611C60.0479 15.7769 59.746 16.0339 59.3973 16.211C59.0486 16.3881 58.663 16.4804 58.2719 16.4804C57.8808 16.4804 57.4952 16.3881 57.1465 16.211C56.7978 16.0339 56.4958 15.7769 56.2651 15.4611L55.2001 13.9959C54.8882 13.5695 54.7201 13.0549 54.7201 12.5266C54.7201 11.9983 54.8882 11.4837 55.2001 11.0573L62.3304 1.32784C62.6302 0.917277 63.0227 0.583294 63.476 0.353052C63.9292 0.12281 64.4304 0.00281048 64.9388 0.00281048C65.4471 0.00281048 65.9483 0.12281 66.4016 0.353052C66.8548 0.583294 67.2473 0.917277 67.5472 1.32784L99.3816 44.8644C99.7327 45.3472 99.9432 45.9177 99.99 46.5128C100.037 47.1078 99.918 47.7043 99.6468 48.236C99.3755 48.7677 98.9624 49.2139 98.4531 49.5253C97.9439 49.8366 97.3584 50.0009 96.7615 50V50Z" fill="url(#paint0_linear_944_341)"/>
<path d="M136.597 16.4082H143.086V38H138.882V23.3955C138.882 22.9756 138.887 22.3896 138.896 21.6377C138.906 20.876 138.911 20.29 138.911 19.8799L134.824 38H130.444L126.387 19.8799C126.387 20.29 126.392 20.876 126.401 21.6377C126.411 22.3896 126.416 22.9756 126.416 23.3955V38H122.212V16.4082H128.774L132.7 33.3857L136.597 16.4082ZM153.237 25.0508C152.271 25.0508 151.519 25.3535 150.981 25.959C150.454 26.5645 150.122 27.3848 149.985 28.4199H156.475C156.406 27.3164 156.069 26.4814 155.464 25.915C154.868 25.3389 154.126 25.0508 153.237 25.0508ZM153.237 21.6084C154.565 21.6084 155.762 21.8574 156.826 22.3555C157.891 22.8535 158.77 23.6396 159.463 24.7139C160.088 25.6611 160.493 26.7598 160.679 28.0098C160.786 28.7422 160.83 29.7969 160.811 31.1738H149.883C149.941 32.7754 150.444 33.8984 151.392 34.543C151.968 34.9434 152.661 35.1436 153.472 35.1436C154.331 35.1436 155.029 34.8994 155.566 34.4111C155.859 34.1475 156.118 33.7812 156.343 33.3125H160.605C160.498 34.2598 160.005 35.2217 159.126 36.1982C157.759 37.751 155.845 38.5273 153.384 38.5273C151.353 38.5273 149.561 37.873 148.008 36.5645C146.455 35.2559 145.679 33.127 145.679 30.1777C145.679 27.4141 146.377 25.2949 147.773 23.8203C149.18 22.3457 151.001 21.6084 153.237 21.6084ZM172.31 21.6523C172.388 21.6523 172.451 21.6572 172.5 21.667C172.559 21.667 172.681 21.6719 172.866 21.6816V25.959C172.603 25.9297 172.368 25.9102 172.163 25.9004C171.958 25.8906 171.792 25.8857 171.665 25.8857C169.985 25.8857 168.857 26.4326 168.281 27.5264C167.959 28.1416 167.798 29.0889 167.798 30.3682V38H163.594V22.0332H167.578V24.8164C168.223 23.752 168.784 23.0244 169.263 22.6338C170.044 21.9795 171.06 21.6523 172.31 21.6523ZM184.863 27.7607C184.785 27.165 184.585 26.6279 184.263 26.1494C183.794 25.5049 183.066 25.1826 182.08 25.1826C180.674 25.1826 179.712 25.8809 179.194 27.2773C178.921 28.0195 178.784 29.0059 178.784 30.2363C178.784 31.4082 178.921 32.3506 179.194 33.0635C179.692 34.3916 180.63 35.0557 182.007 35.0557C182.983 35.0557 183.677 34.792 184.087 34.2646C184.497 33.7373 184.746 33.0537 184.834 32.2139H189.097C188.999 33.4834 188.54 34.6846 187.72 35.8174C186.411 37.6436 184.473 38.5566 181.904 38.5566C179.336 38.5566 177.446 37.7949 176.235 36.2715C175.024 34.748 174.419 32.7705 174.419 30.3389C174.419 27.5947 175.088 25.4609 176.426 23.9375C177.764 22.4141 179.609 21.6523 181.963 21.6523C183.965 21.6523 185.601 22.1016 186.87 23C188.149 23.8984 188.906 25.4854 189.141 27.7607H184.863ZM196.187 22.0332V31.6572C196.187 32.5654 196.294 33.249 196.509 33.708C196.89 34.5186 197.637 34.9238 198.75 34.9238C200.176 34.9238 201.152 34.3477 201.68 33.1953C201.953 32.5703 202.09 31.7451 202.09 30.7197V22.0332H206.323V38H202.266V35.7441C202.227 35.793 202.129 35.9395 201.973 36.1836C201.816 36.4277 201.631 36.6426 201.416 36.8281C200.762 37.4141 200.127 37.8145 199.512 38.0293C198.906 38.2441 198.193 38.3516 197.373 38.3516C195.01 38.3516 193.418 37.502 192.598 35.8027C192.139 34.8652 191.909 33.4834 191.909 31.6572V22.0332H196.187ZM219.038 21.6523C219.116 21.6523 219.18 21.6572 219.229 21.667C219.287 21.667 219.409 21.6719 219.595 21.6816V25.959C219.331 25.9297 219.097 25.9102 218.892 25.9004C218.687 25.8906 218.521 25.8857 218.394 25.8857C216.714 25.8857 215.586 26.4326 215.01 27.5264C214.688 28.1416 214.526 29.0889 214.526 30.3682V38H210.322V22.0332H214.307V24.8164C214.951 23.752 215.513 23.0244 215.991 22.6338C216.772 21.9795 217.788 21.6523 219.038 21.6523ZM222.7 41.0615L223.228 41.0908C223.638 41.1104 224.028 41.0957 224.399 41.0469C224.771 40.998 225.083 40.8857 225.337 40.71C225.581 40.5439 225.806 40.1973 226.011 39.6699C226.226 39.1426 226.313 38.8203 226.274 38.7031L220.415 22.0332H225.059L228.545 33.8105L231.841 22.0332H236.279L230.801 37.7363C229.746 40.7637 228.911 42.6387 228.296 43.3613C227.681 44.0938 226.45 44.46 224.604 44.46C224.233 44.46 223.936 44.4551 223.711 44.4453C223.486 44.4453 223.149 44.4307 222.7 44.4014V41.0615Z" fill="white"/>
<defs>
<linearGradient id="paint0_linear_944_341" x1="21.6756" y1="10.2122" x2="72.7838" y2="71.1134" gradientUnits="userSpaceOnUse">
<stop stop-color="#AA14F0"/>
<stop offset="1" stop-color="#29ABE2"/>
</linearGradient>
</defs>
</svg>
