<svg width="40" height="40" viewBox="0 0 40 40" fill="none" xmlns="http://www.w3.org/2000/svg">
<g clip-path="url(#clip0_944_339)">
<path fill-rule="evenodd" clip-rule="evenodd" d="M40 20C40 31.045 31.045 40 20 40C8.955 40 0 31.045 0 20C0 8.955 8.955 0 20 0C31.045 0 40 8.955 40 20ZM32.8133 18.43C33.1367 18.8917 33.32 19.4367 33.34 20C33.3487 20.5511 33.2012 21.0934 32.9145 21.5642C32.6278 22.0349 32.2137 22.4149 31.72 22.66C31.7433 22.9533 31.7433 23.2467 31.72 23.54C31.72 28.02 26.5 31.66 20.06 31.66C13.62 31.66 8.4 28.02 8.4 23.54C8.37748 23.2471 8.37748 22.9529 8.4 22.66C8.01862 22.4815 7.68042 22.2225 7.40865 21.9008C7.13688 21.5792 6.93798 21.2025 6.82562 20.7966C6.71327 20.3908 6.69013 19.9655 6.75778 19.5498C6.82544 19.1342 6.98229 18.7381 7.21756 18.3889C7.45282 18.0397 7.76093 17.7455 8.12068 17.5266C8.48044 17.3078 8.88332 17.1694 9.30164 17.1211C9.71995 17.0727 10.1438 17.1155 10.544 17.2465C10.9442 17.3775 11.3113 17.5936 11.62 17.88C13.9245 16.3171 16.6358 15.462 19.42 15.42L20.9 8.48C20.9166 8.39966 20.949 8.32341 20.9953 8.25568C21.0416 8.18795 21.1009 8.13009 21.1697 8.08544C21.2386 8.04079 21.3156 8.01025 21.3963 7.99559C21.477 7.98092 21.5599 7.98242 21.64 8L26.54 8.98C26.7793 8.56888 27.1573 8.2565 27.6061 8.09895C28.055 7.94141 28.5453 7.949 28.989 8.12037C29.4328 8.29174 29.8009 8.61567 30.0274 9.03401C30.2538 9.45235 30.3237 9.9377 30.2246 10.4029C30.1254 10.8682 29.8637 11.2829 29.4864 11.5725C29.109 11.8622 28.6408 12.0079 28.1658 11.9834C27.6907 11.959 27.2399 11.766 26.8943 11.4392C26.5487 11.1123 26.3309 10.673 26.28 10.2L22 9.3L20.7 15.54C23.4504 15.599 26.1248 16.4534 28.4 18C28.7037 17.708 29.0671 17.4852 29.4651 17.3469C29.8631 17.2087 30.2863 17.1583 30.7056 17.1991C31.125 17.24 31.5305 17.3712 31.8943 17.5836C32.2582 17.7961 32.5717 18.0848 32.8133 18.43V18.43ZM13.6767 20.8883C13.5307 21.1068 13.4291 21.3518 13.3779 21.6095C13.3266 21.8672 13.3266 22.1324 13.3778 22.3901C13.4812 22.9105 13.7872 23.3685 14.2283 23.6633C14.6695 23.9582 15.2097 24.0657 15.7301 23.9622C15.9878 23.911 16.2328 23.8095 16.4513 23.6636C16.6698 23.5176 16.8573 23.3301 17.0033 23.1117C17.2982 22.6705 17.4057 22.1303 17.3022 21.6099C17.1988 21.0895 16.8928 20.6315 16.4517 20.3367C16.0105 20.0418 15.4703 19.9343 14.9499 20.0378C14.4295 20.1412 13.9715 20.4472 13.6767 20.8883ZM20.02 29.04C21.795 29.1133 23.5417 28.65 24.96 27.58C25.0661 27.4766 25.1267 27.3352 25.1286 27.1871C25.1305 27.0389 25.0734 26.8961 24.97 26.79C24.9188 26.7375 24.8577 26.6955 24.7903 26.6666C24.7229 26.6377 24.6504 26.6223 24.5771 26.6214C24.4289 26.6195 24.2861 26.6766 24.18 26.78C22.9662 27.6507 21.4916 28.0811 20 28C18.5102 28.0666 17.0425 27.622 15.84 26.74C15.7364 26.655 15.6048 26.6115 15.4709 26.6181C15.337 26.6246 15.2104 26.6808 15.1156 26.7756C15.0208 26.8704 14.9646 26.997 14.9581 27.1309C14.9515 27.2648 14.995 27.3964 15.08 27.5C16.499 28.5693 18.2448 29.1135 20.02 29.04V29.04ZM23.4883 23.7433C23.8183 23.9633 24.185 24.16 24.58 24.16C24.8513 24.1632 25.1203 24.1111 25.3708 24.0069C25.6213 23.9027 25.8479 23.7486 26.0369 23.554C26.2259 23.3594 26.3733 23.1284 26.4701 22.8749C26.5669 22.6215 26.6111 22.351 26.6 22.08C26.5999 21.7345 26.5103 21.395 26.3399 21.0945C26.1695 20.7939 25.9242 20.5426 25.6279 20.3651C25.3315 20.1875 24.9942 20.0898 24.6489 20.0813C24.3035 20.0729 23.9618 20.1541 23.6572 20.3169C23.3525 20.4798 23.0952 20.7188 22.9104 21.0107C22.7255 21.3025 22.6194 21.6373 22.6024 21.9823C22.5854 22.3274 22.6581 22.6709 22.8133 22.9796C22.9686 23.2882 23.2011 23.5513 23.4883 23.7433V23.7433Z" fill="url(#paint0_linear_944_339)"/>
</g>
<defs>
<linearGradient id="paint0_linear_944_339" x1="40" y1="19.6364" x2="-2.34274e-07" y2="19.6364" gradientUnits="userSpaceOnUse">
<stop stop-color="#A9A9A9"/>
<stop offset="0.505591" stop-color="#F5F5F5"/>
<stop offset="1" stop-color="#A9A9A9"/>
</linearGradient>
<clipPath id="clip0_944_339">
<rect width="40" height="40" fill="white"/>
</clipPath>
</defs>
</svg>
