<svg width="40" height="40" viewBox="0 0 40 40" fill="none" xmlns="http://www.w3.org/2000/svg">
<path fill-rule="evenodd" clip-rule="evenodd" d="M18.5161 0.025756C18.3838 0.0440245 17.9328 0.0979485 17.5139 0.145623C14.0265 0.542081 10.5436 1.99547 7.57147 4.29465C6.69205 4.97491 4.95021 6.71658 4.26579 7.60004C2.04206 10.4703 0.70176 13.6082 0.138973 17.2615C-0.0463243 18.4647 -0.0463243 21.5556 0.138973 22.7589C1.03651 28.5858 4.08963 33.4469 8.85436 36.6353C11.5021 38.4071 14.2178 39.4258 17.554 39.8985C18.637 40.052 21.5831 40.0268 22.7657 39.854C25.7539 39.4172 28.625 38.3226 31.0644 36.6903C36.0095 33.3809 39.05 28.4827 39.9011 22.454C40.0353 21.5037 40.0323 18.5036 39.8961 17.5263C39.1871 12.4364 36.737 7.92262 32.9486 4.7274C30.0857 2.31276 26.5147 0.710423 22.8058 0.176391C21.9403 0.0517966 19.0592 -0.0494011 18.5161 0.025756ZM15.7756 9.62439L16.0017 9.80932L15.1743 10.07C13.3568 10.6425 11.5591 11.4846 10.1573 12.42C9.70524 12.7215 9.33544 12.9795 9.33544 12.993C9.33544 13.0066 9.78774 12.8237 10.3405 12.5866C13.9289 11.0473 17.9325 10.3039 21.3024 10.551C24.2679 10.7685 26.9401 11.4206 29.676 12.5941C30.2191 12.8271 30.6635 13.0066 30.6635 12.993C30.6635 12.9795 30.2937 12.7214 29.8416 12.4195C28.4403 11.484 26.5406 10.6009 24.7033 10.0309L23.9948 9.81117L24.2222 9.62159C24.429 9.449 24.4999 9.43626 25.0107 9.48017C27.0733 9.65757 29.3693 10.4594 31.2123 11.6459L31.9455 12.1179L32.5391 13.3198C34.4773 17.2435 35.6579 21.6897 35.8481 25.7805L35.8985 26.8634L35.3188 27.423C33.3822 29.2926 31.0044 30.3206 28.0977 30.5449L27.4162 30.5975L27.0891 30.2115C26.9092 29.9992 26.5164 29.5209 26.2161 29.1487L25.6701 28.4719L26.3026 28.2584C27.6474 27.8044 28.8656 27.1097 29.8027 26.2623C30.5673 25.5709 30.502 25.5103 29.5591 26.0364C27.094 27.4116 24.7062 28.1806 22.1242 28.4309C20.7083 28.5682 17.812 28.4841 16.5918 28.2703C15.3799 28.058 14.358 27.7748 13.1934 27.3286C12.2927 26.9834 10.6898 26.2158 10.0864 25.8405C9.53349 25.4966 9.55121 25.5031 9.6459 25.68C9.69321 25.7682 9.92228 26.0119 10.155 26.2216C11.1261 27.0963 12.3648 27.8124 13.6574 28.2465L14.3279 28.4716L13.6783 29.2688C13.3209 29.7071 12.9246 30.1887 12.7975 30.3388L12.5664 30.6117L11.5749 30.5125C8.79318 30.2341 6.55197 29.2285 4.67278 27.4156L4.10045 26.8634L4.15081 25.7805C4.341 21.6897 5.52165 17.2435 7.45978 13.3198L8.05344 12.1179L8.78661 11.6459C10.2426 10.7086 12.2143 9.9235 13.8256 9.63954C15.1992 9.3974 15.4952 9.39516 15.7756 9.62439ZM14.3467 18.8351C13.5847 19.0883 13.0134 19.5696 12.6462 20.2679C12.444 20.6524 12.4234 20.7684 12.423 21.5326C12.4223 22.5489 12.5784 22.9438 13.236 23.5886C14.2479 24.5808 15.8772 24.6069 16.9447 23.6478C18.429 22.3142 18.0578 19.8567 16.2424 18.9985C15.7181 18.7507 14.8309 18.6742 14.3467 18.8351ZM24.2797 18.7995C22.8726 19.1618 21.9069 20.6151 22.1602 21.9891C22.422 23.4083 23.5018 24.3369 24.8905 24.3369C25.6717 24.3369 26.2584 24.1025 26.7762 23.5834C27.4231 22.9351 27.5766 22.5412 27.576 21.5326C27.5755 20.7775 27.5536 20.6498 27.3624 20.2869C26.8835 19.378 26.0198 18.8056 25.0584 18.7602C24.7676 18.7464 24.4172 18.7641 24.2797 18.7995Z" fill="url(#paint0_linear_944_334)"/>
<defs>
<linearGradient id="paint0_linear_944_334" x1="40" y1="19.6364" x2="-2.34274e-07" y2="19.6364" gradientUnits="userSpaceOnUse">
<stop stop-color="#A9A9A9"/>
<stop offset="0.505591" stop-color="#F5F5F5"/>
<stop offset="1" stop-color="#A9A9A9"/>
</linearGradient>
</defs>
</svg>
