<svg width="50" height="50" viewBox="0 0 50 50" fill="none" xmlns="http://www.w3.org/2000/svg">
<path fill-rule="evenodd" clip-rule="evenodd" d="M23.1451 0.032195C22.9798 0.0550306 22.416 0.122436 21.8923 0.182028C17.5331 0.677601 13.1795 2.49433 9.46434 5.36831C8.36506 6.21864 6.18776 8.39573 5.33223 9.50005C2.55257 13.0878 0.8772 17.0103 0.173716 21.5769C-0.0579054 23.0809 -0.0579054 26.9445 0.173716 28.4486C1.29564 35.7322 5.11204 41.8086 11.0679 45.7941C14.3776 48.0089 17.7722 49.2822 21.9424 49.8732C23.2963 50.065 26.9789 50.0335 28.4571 49.8175C32.1923 49.2715 35.7813 47.9033 38.8305 45.8628C45.0119 41.7262 48.8124 35.6034 49.8763 28.0675C50.0441 26.8796 50.0403 23.1295 49.8701 21.9079C48.9839 15.5455 45.9212 9.90328 41.1858 5.90925C37.6071 2.89095 33.1434 0.888029 28.5072 0.220488C27.4254 0.0647457 23.824 -0.0617514 23.1451 0.032195ZM19.7195 12.0305L20.0022 12.2617L18.9678 12.5875C16.696 13.3031 14.4489 14.3557 12.6966 15.5249C12.1315 15.9019 11.6693 16.2243 11.6693 16.2413C11.6693 16.2583 12.2347 16.0296 12.9256 15.7333C17.4111 13.8091 22.4156 12.8798 26.628 13.1888C30.3349 13.4606 33.6752 14.2757 37.0951 15.7427C37.7739 16.0339 38.3293 16.2583 38.3293 16.2413C38.3293 16.2243 37.8671 15.9017 37.302 15.5244C35.5504 14.355 33.1757 13.2511 30.8791 12.5387L29.9935 12.264L30.2777 12.027C30.5363 11.8113 30.6249 11.7953 31.2634 11.8502C33.8416 12.072 36.7116 13.0742 39.0154 14.5574L39.9318 15.1473L40.6739 16.6497C43.0966 21.5544 44.5724 27.1121 44.8101 32.2256L44.8731 33.5793L44.1485 34.2788C41.7278 36.6157 38.7555 37.9007 35.1221 38.1811L34.2702 38.2468L33.8614 37.7644C33.6365 37.499 33.1455 36.9012 32.7701 36.4358L32.0877 35.5899L32.8783 35.323C34.5592 34.7555 36.082 33.8872 37.2534 32.8279C38.2092 31.9637 38.1275 31.8879 36.9488 32.5455C33.8675 34.2644 30.8828 35.2257 27.6553 35.5386C25.8853 35.7102 22.265 35.6051 20.7397 35.3379C19.2248 35.0725 17.9474 34.7185 16.4918 34.1608C15.3658 33.7293 13.3622 32.7697 12.608 32.3006C11.9169 31.8707 11.939 31.8788 12.0574 32.1C12.1165 32.2102 12.4029 32.5149 12.6938 32.777C13.9076 33.8704 15.456 34.7655 17.0718 35.3081L17.9099 35.5895L17.0978 36.586C16.6511 37.1339 16.1557 37.7359 15.9968 37.9234L15.708 38.2647L14.4686 38.1407C10.9915 37.7926 8.18997 36.5357 5.84098 34.2696L5.12557 33.5793L5.18851 32.2256C5.42624 27.1121 6.90207 21.5544 9.32472 16.6497L10.0668 15.1473L10.9833 14.5574C12.8033 13.3857 15.2679 12.4044 17.2819 12.0494C18.999 11.7468 19.369 11.7439 19.7195 12.0305ZM17.9334 23.5438C16.9809 23.8603 16.2668 24.462 15.8077 25.3348C15.555 25.8155 15.5293 25.9605 15.5287 26.9157C15.5279 28.1862 15.723 28.6797 16.545 29.4858C17.8098 30.726 19.8465 30.7586 21.1808 29.5597C23.0362 27.8927 22.5723 24.8209 20.3029 23.7482C19.6477 23.4384 18.5387 23.3427 17.9334 23.5438ZM30.3497 23.4994C28.5907 23.9523 27.3836 25.7689 27.7003 27.4864C28.0274 29.2603 29.3773 30.4212 31.1131 30.4212C32.0896 30.4212 32.823 30.1281 33.4702 29.4793C34.2788 28.6688 34.4708 28.1765 34.4699 26.9157C34.4693 25.9718 34.442 25.8123 34.203 25.3587C33.6044 24.2225 32.5248 23.507 31.323 23.4502C30.9594 23.433 30.5215 23.4551 30.3497 23.4994Z" fill="url(#paint0_linear_944_325)"/>
<defs>
<linearGradient id="paint0_linear_944_325" x1="25" y1="0" x2="25" y2="50" gradientUnits="userSpaceOnUse">
<stop stop-color="#29ABE2"/>
<stop offset="1" stop-color="#AA14F0"/>
</linearGradient>
</defs>
</svg>
