<svg width="50" height="50" viewBox="0 0 50 50" fill="none" xmlns="http://www.w3.org/2000/svg">
<g clip-path="url(#clip0_944_323)">
<path fill-rule="evenodd" clip-rule="evenodd" d="M50 25C50 38.8062 38.8062 50 25 50C11.1937 50 0 38.8062 0 25C0 11.1937 11.1937 0 25 0C38.8062 0 50 11.1937 50 25ZM41.0167 23.0375C41.4208 23.6146 41.65 24.2958 41.675 25C41.6859 25.6889 41.5015 26.3668 41.1431 26.9552C40.7848 27.5437 40.2671 28.0186 39.65 28.325C39.6792 28.6917 39.6792 29.0583 39.65 29.425C39.65 35.025 33.125 39.575 25.075 39.575C17.025 39.575 10.5 35.025 10.5 29.425C10.4719 29.0589 10.4719 28.6911 10.5 28.325C10.0233 28.1018 9.60052 27.7781 9.26081 27.376C8.9211 26.9739 8.67247 26.5031 8.53203 25.9958C8.39159 25.4885 8.36266 24.9568 8.44723 24.4373C8.5318 23.9177 8.72786 23.4227 9.02195 22.9861C9.31603 22.5496 9.70116 22.1819 10.1509 21.9083C10.6006 21.6347 11.1042 21.4618 11.627 21.4013C12.1499 21.3409 12.6797 21.3944 13.18 21.5581C13.6802 21.7219 14.1391 21.992 14.525 22.35C17.4057 20.3963 20.7947 19.3275 24.275 19.275L26.125 10.6C26.1458 10.4996 26.1863 10.4043 26.2442 10.3196C26.302 10.2349 26.3761 10.1626 26.4622 10.1068C26.5482 10.051 26.6445 10.0128 26.7454 9.99448C26.8463 9.97615 26.9498 9.97802 27.05 10L33.175 11.225C33.4741 10.7111 33.9466 10.3206 34.5077 10.1237C35.0687 9.92676 35.6816 9.93625 36.2363 10.1505C36.791 10.3647 37.2512 10.7696 37.5342 11.2925C37.8173 11.8154 37.9047 12.4221 37.7807 13.0037C37.6568 13.5852 37.3296 14.1036 36.858 14.4657C36.3863 14.8277 35.801 15.0098 35.2072 14.9793C34.6134 14.9487 34.0499 14.7075 33.6179 14.299C33.1858 13.8904 32.9136 13.3412 32.85 12.75L27.5 11.625L25.875 19.425C29.313 19.4987 32.6561 20.5668 35.5 22.5C35.8797 22.135 36.3338 21.8565 36.8313 21.6837C37.3288 21.5109 37.8579 21.4478 38.3821 21.4989C38.9062 21.55 39.4131 21.7139 39.8679 21.9795C40.3227 22.2451 40.7146 22.6061 41.0167 23.0375V23.0375ZM17.0958 26.1104C16.9134 26.3835 16.7864 26.6898 16.7223 27.0119C16.6582 27.3339 16.6582 27.6655 16.7222 27.9876C16.8515 28.6381 17.234 29.2106 17.7854 29.5792C18.3368 29.9477 19.0121 30.0821 19.6626 29.9528C19.9847 29.8887 20.291 29.7619 20.5641 29.5795C20.8372 29.397 21.0717 29.1626 21.2542 28.8896C21.6227 28.3382 21.7571 27.6629 21.6278 27.0124C21.4985 26.3619 21.116 25.7894 20.5646 25.4208C20.0132 25.0523 19.3379 24.9179 18.6874 25.0472C18.0369 25.1765 17.4644 25.559 17.0958 26.1104ZM25.025 36.3C27.2437 36.3917 29.4271 35.8125 31.2 34.475C31.3326 34.3457 31.4084 34.169 31.4108 33.9838C31.4131 33.7986 31.3418 33.6201 31.2125 33.4875C31.1485 33.4218 31.0722 33.3694 30.9879 33.3333C30.9036 33.2971 30.813 33.2779 30.7213 33.2767C30.5361 33.2744 30.3576 33.3457 30.225 33.475C28.7078 34.5634 26.8645 35.1014 25 35C23.1378 35.0832 21.3031 34.5275 19.8 33.425C19.6705 33.3187 19.506 33.2644 19.3387 33.2726C19.1713 33.2808 19.013 33.351 18.8945 33.4695C18.776 33.588 18.7058 33.7463 18.6976 33.9137C18.6894 34.081 18.7437 34.2455 18.85 34.375C20.6237 35.7116 22.806 36.3919 25.025 36.3V36.3ZM29.3604 29.6792C29.7729 29.9542 30.2312 30.2 30.725 30.2C31.0641 30.204 31.4004 30.1388 31.7135 30.0086C32.0266 29.8784 32.3099 29.6858 32.5461 29.4425C32.7824 29.1993 32.9666 28.9104 33.0876 28.5937C33.2086 28.2769 33.2639 27.9388 33.25 27.6C33.2498 27.1682 33.1378 26.7437 32.9249 26.3681C32.7119 25.9924 32.4053 25.6783 32.0348 25.4564C31.6644 25.2344 31.2428 25.1122 30.8111 25.1017C30.3794 25.0911 29.9523 25.1926 29.5714 25.3962C29.1906 25.5997 28.869 25.8985 28.6379 26.2633C28.4069 26.6281 28.2743 27.0466 28.253 27.4779C28.2318 27.9092 28.3226 28.3387 28.5167 28.7244C28.7107 29.1102 29.0014 29.4391 29.3604 29.6792V29.6792Z" fill="url(#paint0_linear_944_323)"/>
</g>
<defs>
<linearGradient id="paint0_linear_944_323" x1="25" y1="0" x2="25" y2="50" gradientUnits="userSpaceOnUse">
<stop stop-color="#29ABE2"/>
<stop offset="1" stop-color="#AA14F0"/>
</linearGradient>
<clipPath id="clip0_944_323">
<rect width="50" height="50" fill="white"/>
</clipPath>
</defs>
</svg>
