<svg width="174" height="148" viewBox="0 0 174 148" fill="none" xmlns="http://www.w3.org/2000/svg">
<path d="M31.0813 50.488L27.2581 33.4277C24.7979 42.3707 24.564 51.7869 26.577 60.8427L30.3538 77.8873C28.3456 68.8339 28.5956 59.4203 31.0813 50.488V50.488Z" fill="url(#paint0_linear_944_107)"/>
<path d="M3.35932 27.8291L27.2583 33.4275C18.6212 65.0841 38.1861 97.0838 70.8769 104.756C82.1095 107.36 93.8314 106.863 104.807 103.317C115.783 99.7714 125.606 93.3079 133.24 84.6083C139.135 77.8714 143.433 69.8727 145.809 61.2167L169.661 66.7839C166.32 78.9441 160.287 90.1833 152.016 99.6569C141.312 111.86 127.537 120.926 112.144 125.897C96.7515 130.867 80.3122 131.559 64.5617 127.898C18.6986 117.154 -8.74494 72.2575 3.35932 27.8291Z" fill="url(#paint1_linear_944_107)"/>
<path d="M152.047 99.6572C141.341 111.866 127.56 120.935 112.161 125.906C96.7625 130.877 80.3169 131.565 64.5617 127.899C32.196 120.32 9.00904 95.743 2.41516 66.3164L6.23837 83.3611C12.8323 112.788 36.0192 137.38 68.3849 144.959C84.1403 148.617 100.583 147.924 115.981 142.954C131.378 137.983 145.159 128.919 155.87 116.717C164.146 107.243 170.175 95.9969 173.5 83.8289L169.661 66.7842C166.33 78.9416 160.307 90.1806 152.047 99.6572V99.6572Z" fill="url(#paint2_linear_944_107)"/>
<path d="M104.322 78.7628C124.812 69.3615 133.668 45.1058 124.102 24.5856C114.537 4.06546 90.1724 -4.94803 69.6824 4.45328C49.1924 13.8546 40.3365 38.1102 49.9021 58.6304C59.4678 79.1505 83.8321 88.1641 104.322 78.7628Z" fill="url(#paint3_radial_944_107)"/>
<path d="M111.751 55.04H96.1561C95.8937 55.0399 95.6351 54.9775 95.4011 54.8577C95.1672 54.738 94.9646 54.5643 94.8099 54.3508L92.7869 51.5591L88.4586 45.5893L87.608 44.4158L85.4691 41.4675L85.4783 41.4554L84.2388 39.7474L84.2287 39.7557L80.9321 35.2087C80.8131 35.0445 80.6573 34.9109 80.4774 34.8188C80.2975 34.7267 80.0985 34.6787 79.8967 34.6787C79.6948 34.6787 79.4959 34.7267 79.3159 34.8188C79.136 34.9109 78.9802 35.0445 78.8612 35.2087L77.7578 36.7287L67.7494 50.53C67.6801 50.6265 67.6386 50.7404 67.6294 50.8592C67.6202 50.9779 67.6436 51.0969 67.697 51.2031C67.7505 51.3093 67.832 51.3986 67.9326 51.4613C68.0331 51.5239 68.1489 51.5574 68.2671 51.5582H77.492C77.6938 51.5582 77.8928 51.5102 78.0727 51.4181C78.2526 51.3261 78.4084 51.1925 78.5274 51.0284L82.2976 45.8367C82.4166 45.6726 82.5723 45.5392 82.7522 45.4472C82.932 45.3552 83.1309 45.3073 83.3326 45.3073C83.5343 45.3073 83.7331 45.3552 83.9129 45.4472C84.0928 45.5392 84.2485 45.6726 84.3675 45.8367L84.9192 46.5943C85.0797 46.8162 85.1662 47.0836 85.1662 47.358C85.1662 47.6325 85.0797 47.8999 84.9192 48.1217L82.4245 51.5591L80.3969 54.3518C80.2422 54.565 80.0398 54.7385 79.806 54.858C79.5722 54.9776 79.3138 55.04 79.0516 55.04H63.4937C63.1857 55.0396 62.8838 54.9534 62.6213 54.7909C62.3589 54.6284 62.1462 54.3959 62.0068 54.1193C61.8674 53.8426 61.8066 53.5325 61.8313 53.2232C61.856 52.9139 61.9651 52.6175 62.1466 52.3668L62.7333 51.5591L69.3871 42.3826L75.6235 33.7805L77.7605 30.8331L78.5523 29.742C78.7068 29.5284 78.9093 29.3546 79.1431 29.2348C79.377 29.115 79.6357 29.0526 79.898 29.0526C80.1604 29.0526 80.4191 29.115 80.6529 29.2348C80.8868 29.3546 81.0893 29.5284 81.2438 29.742L86.385 36.8315L87.6099 38.522L89.7487 41.4703L90.4742 42.4697L96.6803 51.0284C96.7996 51.1922 96.9555 51.3255 97.1353 51.4175C97.3152 51.5096 97.514 51.5577 97.7157 51.5582H106.971C107.089 51.5574 107.205 51.5239 107.306 51.4613C107.406 51.3986 107.488 51.3093 107.541 51.2031C107.595 51.0969 107.618 50.9779 107.609 50.8592C107.599 50.7404 107.558 50.6265 107.489 50.53L96.3621 35.206C96.2431 35.0419 96.0874 34.9085 95.9075 34.8165C95.7277 34.7245 95.5289 34.6766 95.3272 34.6766C95.1255 34.6766 94.9266 34.7245 94.7468 34.8165C94.567 34.9085 94.4112 35.0419 94.2922 35.206L92.9258 37.0881C92.8061 37.2513 92.65 37.3839 92.4702 37.4753C92.2904 37.5667 92.0918 37.6143 91.8904 37.6143C91.6889 37.6143 91.4903 37.5667 91.3105 37.4753C91.1307 37.3839 90.9746 37.2513 90.8549 37.0881L90.3032 36.3304C90.1427 36.1086 90.0563 35.8412 90.0563 35.5667C90.0563 35.2923 90.1427 35.0249 90.3032 34.803L93.9814 29.7383C94.1363 29.5252 94.3389 29.3519 94.5727 29.2325C94.8065 29.113 95.065 29.0508 95.3272 29.0508C95.5893 29.0508 95.8478 29.113 96.0816 29.2325C96.3155 29.3519 96.518 29.5252 96.6729 29.7383L113.096 52.3659C113.278 52.6164 113.388 52.9127 113.413 53.2221C113.438 53.5315 113.377 53.8419 113.238 54.1187C113.099 54.3956 112.886 54.6283 112.624 54.7909C112.361 54.9535 112.059 55.0397 111.751 55.04V55.04Z" fill="url(#paint4_linear_944_107)"/>
<defs>
<linearGradient id="paint0_linear_944_107" x1="26.4925" y1="42.5083" x2="33.6941" y2="43.0737" gradientUnits="userSpaceOnUse">
<stop stop-color="#AA14F0"/>
<stop offset="1" stop-color="#29ABE2"/>
</linearGradient>
<linearGradient id="paint1_linear_944_107" x1="85.0807" y1="-81.4271" x2="171.956" y2="84.8133" gradientUnits="userSpaceOnUse">
<stop stop-color="#AA14F0"/>
<stop offset="1" stop-color="#29ABE2"/>
</linearGradient>
<linearGradient id="paint2_linear_944_107" x1="39.4989" y1="82.8509" x2="121.34" y2="185.901" gradientUnits="userSpaceOnUse">
<stop stop-color="#AA14F0"/>
<stop offset="1" stop-color="#29ABE2"/>
</linearGradient>
<radialGradient id="paint3_radial_944_107" cx="0" cy="0" r="1" gradientUnits="userSpaceOnUse" gradientTransform="translate(113.938 63.9703) rotate(-141.65) scale(88.138 77.9196)">
<stop stop-color="#F7FDFF"/>
<stop offset="0.677083" stop-color="#6C7DD6"/>
<stop offset="1" stop-color="#1C98DE"/>
</radialGradient>
<linearGradient id="paint4_linear_944_107" x1="73.0074" y1="34.3612" x2="99.6008" y2="65.8248" gradientUnits="userSpaceOnUse">
<stop stop-color="#AA14F0"/>
<stop offset="1" stop-color="#29ABE2"/>
</linearGradient>
</defs>
</svg>
